<svg id="Layer_1" data-name="Layer 1" xmlns="http://www.w3.org/2000/svg" viewBox="0 0 1024 1024"><title>attach</title><path d="M216.76185,212.66h0c171.26769,0,342.48436-1.07074,513.75205,0,192.68231,3.67116,350.59143,224.39662,273.54893,412.79641a306.01217,306.01217,0,0,1-277.3221,186.35972H216.76142V755.72975c172.08354,0,344.167,3.21222,516.19944-.05117C888.21841,750.73247,1014.362,582.56723,952.157,430.47088c-36.25184-88.71828-128.4886-161.1126-225.569-161.72446H216.7622s-8.05607.153-12.747.45886c-94.42942,8.26-175.87251,109.66957-142.35792,201.60531A164.75318,164.75318,0,0,0,212.27494,586.14481c156.43024,1.93756,320.61062.05121,477.0918.05121.30587,0-9.57751,0-9.27164.05121l10.24034-.05121c90.04559,0,90.618-138.6355-10.03643-138.6355H216.76185V391.47415c159.08158,0,318.11226-1.93756,477.1938.05121,74.544,2.80431,137.61578,78.31712,120.025,153.67683a129.8537,129.8537,0,0,1-120.025,97.02962l-.05117-.40787c-.6119.10239-1.22371.20387-1.88655.30587-155.8694,7.44423-319.74384.153-475.76633.153C86.48831,640.6507-25.42963,509.35731,5.061,378.93076,26.98556,285.01187,117.79478,210.21251,216.76185,212.66Z"/></svg>