<svg id="Layer_1" data-name="Layer 1" xmlns="http://www.w3.org/2000/svg" viewBox="0 0 1024 1024"><title>chats-bar</title><path d="M809.56857,34.41574A221.99882,221.99882,0,0,1,1019.07487,243.922c1.536,117.9625,10.85416,236.84654-1.024,353.47789-10.2398,103.93394-105.26513,191.79145-213.807,193.12259H558.48872l-307.194,200.9049V790.52253h-30.7194a156.77288,156.77288,0,0,1-33.38175-2.04793A221.282,221.282,0,0,1,4.92513,581.01627c-1.536-117.86012-10.85419-236.84658,1.024-353.47791,10.2398-102.398,101.06682-189.0267,208.48233-193.12263Q512,30.72941,809.56857,34.41574ZM220.16572,102.408A152.47062,152.47062,0,0,0,72.815,245.76521q-2.15036,166.80635,0,333.71508A152.36824,152.36824,0,0,0,220.16572,722.83744H318.775v143.3572l219.43891-143.3572c93.59176,0,180.32284,5.73426,277.19142,0A152.06109,152.06109,0,0,0,951.1851,579.48025q2.15035-166.80635,0-333.71508A152.36823,152.36823,0,0,0,807.82791,102.408C612.04287,99.84806,416.0531,102.408,220.16572,102.408Z"/></svg>