<svg id="Layer_1" data-name="Layer 1" xmlns="http://www.w3.org/2000/svg" viewBox="0 0 1024 1024"><title>chats-empty-state</title><path d="M932.08471,37.2459a96.38586,96.38586,0,0,1,90.85468,90.85465c2.35591,190.41578,0,380.93395,0,571.45221a96.28344,96.28344,0,0,1-93.2105,93.2105H556.2722l-301.14167,196.664V792.76334H94.21432a67.60144,67.60144,0,0,1-14.03279-1.02428,95.9761,95.9761,0,0,1-79.0753-89.93277c-2.4583-190.41589-.10243-380.9341-.10243-571.34987A95.97611,95.97611,0,0,1,92.16574,37.2459Q512.1252,31.91959,932.08471,37.2459ZM94.52161,81.80258a50.6,50.6,0,0,0-48.96113,47.62956q-3.585,285.67483,0,571.45217a51.21462,51.21462,0,0,0,48.96113,47.62957H299.37989V907.279L542.854,748.309c129.368,0,258.736,1.6389,388.104,0a50.4975,50.4975,0,0,0,47.62957-47.62957q3.58508-285.67483,0-571.45219a50.6,50.6,0,0,0-47.42466-47.42469C652.3507,78.21756,373.43615,81.80258,94.52161,81.80258Z"/></svg>