<svg id="Layer_1" data-name="Layer 1" xmlns="http://www.w3.org/2000/svg" viewBox="0 0 1024 1024"><title>comments-empty-state</title><path d="M348.49655,622.81329,157.34972,748.7429V622.81329H77.90144a54.05825,54.05825,0,0,1-11.67152-.92144A79.96017,79.96017,0,0,1,.39841,547.15314c-.92144-108.42233,0-216.43513,0-324.44795A79.85781,79.85781,0,0,1,75.649,144.895q244.283-3.07147,488.77074,0a80.165,80.165,0,0,1,75.25061,75.9673V275.739q153.57271-.5119,307.65728,1.43334a80.16491,80.16491,0,0,1,76.06968,75.4554c1.33093,108.0128,0,216.128,0,324.1408a80.06251,80.06251,0,0,1-77.09349,77.91256H866.85565V880.61072L675.2993,755.0906H461.11654a54.15753,54.15753,0,0,1-11.67152-.9214,79.96012,79.96012,0,0,1-65.52437-75.14829v-56.31ZM640.59183,314.23452c0,76.88874-.6143,153.57269-.6143,230.76858A80.06257,80.06257,0,0,1,562.884,622.91566H420.16382q0,27.64308.6143,55.38852a42.079,42.079,0,0,0,40.95272,39.82652H686.35647l143.33453,94.396V717.926H946.81581a41.97658,41.97658,0,0,0,39.417-39.72411q2.0476-162.0704,0-324.1408a41.97658,41.97658,0,0,0-40.95272-39.82652ZM562.67927,181.95722H78.20858a42.07893,42.07893,0,0,0-40.95272,39.82652q-2.04764,162.0704,0,324.1408A42.0789,42.0789,0,0,0,78.20858,585.751H194.20717v94.4984l144.0512-94.60077c75.25061,0,150.50126.92144,225.75187,0a41.97656,41.97656,0,0,0,39.417-39.72415q2.04766-162.07034,0-324.1408A41.97655,41.97655,0,0,0,562.67927,181.95722Z"/></svg>