<svg id="Layer_1" data-name="Layer 1" xmlns="http://www.w3.org/2000/svg" viewBox="0 0 1024 1024"><title>emoji</title><path d="M511.2666-.00962C228.49718.44224-.36642,230.03846.08544,512.8079S230.13352,1024.44094,512.903,1023.989c282.43312-.45135,511.158-229.52273,511.18181-511.95621C1023.75417,229.07374,794.22588-.10732,511.2666-.00962Zm0,952.73858C267.86258,952.37221,70.8338,754.76516,71.19051,511.3611S269.15433,70.9283,512.55835,71.285c243.162.35635,440.09081,197.58566,440.07657,440.74782C952.31332,755.55173,754.78569,952.77848,511.2666,952.729Z"/><ellipse cx="371.8662" cy="418.86361" rx="62.03807" ry="103.40823"/><ellipse cx="661.33699" cy="418.86361" rx="62.03806" ry="103.40823"/><path d="M683.84924,633.4026a38.68168,38.68168,0,0,0-14.30759,2.2926c-92.135,39.83574-201.21437,49.76486-291.17731,7.39484-48.12737-23.3397-76.53493,28.47645-47.23055,51.4024C426.561,759.99522,567.1335,751.7901,680.10866,704.835,730.18386,684.15008,718.04864,636.28125,683.84924,633.4026Z"/></svg>