<svg id="Layer_1" data-name="Layer 1" xmlns="http://www.w3.org/2000/svg" viewBox="0 0 1024 1024"><title>envelope</title><path d="M1024.005,717.167q-.61448,7.37359-1.43374,14.64467A187.51308,187.51308,0,0,1,845.70873,895.66808c-220.59167,2.765-441.28573,0-661.87736,0A188.23,188.23,0,0,1,1.746,718.19111c0-26.62665-1.0241-53.25329-1.741-79.98241V323.70688q1.12651-15.15673,2.66267-30.72307a187.51313,187.51313,0,0,1,176.8625-163.85639q333.14048-4.19882,666.281,0a188.53726,188.53726,0,0,1,177.68175,178.39864q-.00012,14.9519.51208,30.0062ZM74.15,358.73118q-1.741,178.3986.51205,356.89967a113.3681,113.3681,0,0,0,106.609,107.326q331.29711,4.1989,662.59423,0a113.36818,113.36818,0,0,0,106.6091-106.6091q1.84343-173.27811.71687-346.65865L517.27913,644.86538,74.15,359.44805ZM946.0708,282.12833A113.88017,113.88017,0,0,0,843.66056,201.8387c-219.8748-2.76508-439.64717,0-659.522,0A114.085,114.085,0,0,0,81.72835,273.52587L517.58635,554.642,946.0708,282.8452Z"/></svg>