<svg id="Layer_1" data-name="Layer 1" xmlns="http://www.w3.org/2000/svg" viewBox="0 0 1024 1024"><title>eye-crossed</title><path d="M1023.32875,509.39267l-.82609-1.067-1.153-1.46289-1.48008-1.85867-1.721-2.23734-2.09922-2.58148-2.40945-2.94289-2.71922-3.25273-3.0118-3.59691-1.61789-1.91027-1.721-1.97918-1.721-2.048-1.84148-2.134-1.91023-2.18562-1.97922-2.27176-2.048-2.32336-2.1168-2.39227-2.23742-2.49547-2.25453-2.52988-2.32336-2.49547-2.39227-2.63313-2.461-2.66754-2.54711-2.73645-2.59867-2.788-2.6675-2.83965-2.7193-2.89125-2.788-2.94289-2.87406-3.0118-2.92578-3.029-2.99461-3.08059-3.04617-3.09781-3.115-3.14941-3.18383-3.13223-3.26992-3.25273-3.30438-3.25273-3.442-3.287-3.442-3.30434-3.442-3.33875-3.54531-3.442-3.597-3.442-3.66594-3.442-3.70023-3.442-3.78625-3.442-3.83781-3.442-3.88945-3.442-3.94109-3.442-4.01-3.442-4.04477-3.442-4.1132-3.54527-4.16484-3.442-2.09922-1.72105-2.1168-1.72105-2.134-1.72105-2.134-1.72105-2.15125-1.72105-2.16852-1.72105-2.18562-1.72105-2.18563-1.72105-2.06531-2.39215-2.22016-1.72105-2.23734-1.72105-2.23734-1.72105-2.25453-1.72105-2.27172-1.72105-2.289-1.72105-2.289-1.72105-2.30617-1.72105-2.30617-1.72105-2.34055-1.72105-2.34055-1.72105-2.35773-1.72105-2.35773-1.72105-2.375-1.72105-2.39227-1.72105-2.40937-1.721-2.40937-1.721-2.42687-1.721-2.44391-1.721-2.44391-1.721-2.461-1.721-2.461-1.721-2.49547-1.721L810.76719,312.32l-2.51266-1.721-2.51266-1.721-2.52992-1.721-2.54711-1.721-2.54711-1.721-2.54711-1.721-2.5643-1.721-2.58148-1.721-2.59867-1.721-2.59867-1.61793-1.35953-.84326L896.37008,181.86759,849.30047,134.798,723.32289,260.77582l-.74008-.36137-2.83969-1.37678-2.83969-1.35957-2.857-1.34236-2.87406-1.34236-2.87406-1.30795-2.89125-1.30795-2.89125-1.29074-2.90812-1.29074-2.90813-1.25635-2.92578-1.25635-2.92578-1.239-2.94289-1.22193-2.94289-1.20473-2.94289-1.18783-2.97734-1.17023-2.97734-1.15313-2.97734-1.13582-2.99461-1.11861-2.99461-1.10152-2.99461-1.08422-3.0118-1.08422-3.029-1.0498-3.029-1.0326-3.029-1.0326-3.04621-.9982-3.04621-.981-3.04621-.96379-3.0634-.94658-3.08059-.91219-3.08059-.91219-3.08059-.87768-3.09781-.86016-3.09781-.84326-3.0807-.86016-3.115-.809-3.115-.79166-3.13223-.75725-3.13223-.74-3.14941-.72283-3.14941-.68844-3.14941-.68844-3.14941-.654-3.1666-.63672-3.1666-.61951-3.1666-.58512-3.18391-.56791-3.201-.5335-3.201-.5335-3.201-.4991-3.21824-.48189-3.21824-.44748-3.21824-.43008-3.20121-.34428-3.23586-.37889-3.23586-.34416-3.25273-.327-3.25273-.29256-3.25273-.27535-3.25273-.25814-3.26992-.22375-3.26992-.18934-3.26992-.17213-3.287-.15492-3.287-.12053-3.30434-.10322H502.05234l-3.30434.10322-3.287.12053-3.26992.15492-3.287.17213-3.26992.18934-3.26992.22375-3.26992.25814-3.25273.27535-3.25273.29256-3.25273.327-3.23586.34416-3.14922.37889-3.21824.39578-3.21824.43008-3.21824.44748-3.201.48189-3.201.4991-3.201.5335-3.18391.5335-3.20113.56791-3.1666.58512-3.1666.61951-3.1666.63672-3.1666.654-3.14941.68844-3.14941.68844-3.14941.72283-3.13223.74-3.115.75725-3.115.79166-3.115.809-3.09781.82605-3.09781.84326-3.09781.86016-3.08059.87768-3.08059.91219-3.0634.91219-3.08059.94658-3.04621.96379-3.04621.981-3.029.9982-3.04621,1.0326-3.029,1.0326-3.029,1.0498-2.99457,1.08422-3.0118,1.08422-2.99457,1.10152-2.97738,1.11861-2.97738,1.13582-2.97738,1.15312-2.9602,1.17023-2.9602,1.18783-2.943,1.20473-2.943,1.22193-2.92566,1.239-2.92566,1.25635-2.90816,1.25635-2.89127,1.29076-2.89127,1.29074-2.89127,1.30795-2.87406,1.30795-2.87406,1.34236-2.857,1.34236-2.83965,1.35957-2.83965,1.37678-2.82244,1.394-2.82246,1.41127-2.80576,1.41127-2.80576,1.42838-2.788,1.44568-2.77084,1.44568-2.77084,1.46289L279.078,271.8939l-2.75363,1.49729-2.73643,1.49729-2.73643,1.51449-2.71924,1.51449-2.71924,1.5317-2.702,1.5317-2.68473,1.54891-2.68473,1.56611-2.66752,1.56611-2.66752,1.5833-2.65031,1.5833-2.65031,1.60051-2.65031,1.61793-2.61592,1.60051-2.61592,1.61793-2.59871,1.61793-2.59871,1.721-2.5815,1.721-2.5643,1.721-2.5643,1.721-2.54709,1.721-2.54709,1.721-2.5299,1.721-2.5127,1.721-2.5127,1.721-2.49549,1.721-2.49549,1.721-2.46107,1.721-2.46107,1.721-2.44389,1.721-2.44389,1.721-2.40938,1.721-2.40937,1.721L191.255,327.862l-2.39217,1.72105-2.375,1.72105-2.35775,1.72105-2.35775,1.72105-2.34057,1.72105-2.34057,1.72105-2.30615,1.72105-2.30615,1.72105-2.28895,1.72105-2.27174,1.72105-2.27174,1.72105-2.25454,1.72105-2.23733,1.72105-2.23733,1.72105-2.30636,1.6691-2.22014,1.72105-2.18563,1.72105-2.16853,1.72105-2.16853,1.72105-2.15122,1.72105-2.134,1.72105-2.134,1.72105-2.11682,1.72105-2.0992,1.72105-4.16481,3.442-4.1132,3.54527-4.06159,3.442-3.99278,3.442-3.94106,3.442-3.88946,3.442-3.83785,3.442-3.769,3.442-3.71712,3.442-3.64852,3.442-3.5969,3.442-3.54529,3.442-3.442,3.33875-3.442,3.30434-3.442,3.287-3.18382,3.92387-3.26994,3.25273-3.16662,3.18391-3.115,3.14941L64.83048,437.06,61.8531,440.1406,58.91022,443.118l-2.857,2.97738L53.248,449.03689l-2.71923,2.89125-2.66752,2.83965-2.59871,2.80574-2.52989,2.75363-2.46108,2.68473-2.40937,2.6159-2.32335,2.5643-2.25454,2.46109L31.09857,473.097l-2.11681,2.39227-2.048,2.32336L24.95488,480.084l-1.91027,2.18563-1.84146,2.15121-1.721,2.048L17.76077,488.448l-1.61792,1.91027-3.01179,3.59691-2.702,3.25273L8.01966,500.1508l-2.0992,2.58152-1.721,2.23734L2.65052,506.794,1.4974,508.25693l-.82606,1.067L0,510.23591l.67123.87777.82606,1.067,1.15313,1.48008,1.48009,1.87586,1.721,2.23734,2.0992,2.59871,2.40937,2.94289,2.702,3.30434,3.01179,3.6141,1.61792,1.92746,1.721,1.9968,1.721,2.0652,1.84146,2.134,1.91027,2.22012,2.0308,2.35777,2.048,2.34055,2.11681,2.40938,2.18573,2.47809,2.25454,2.52988,2.34056,2.54711,2.39217,2.65031,2.46108,2.702,2.52989,2.75363,2.59871,2.80574,2.66752,2.857,2.71923,2.92578,2.80525,2.9602,2.857,2.99457,2.92567,3.04621,2.97738,3.09781,3.0634,3.13223,3.115,3.1666,3.16662,3.201,3.30435,3.26992,3.30435,3.287,3.442,3.30434,3.442,3.33875,3.442,3.442,3.54529,3.442,3.47648,3.32156,3.64852,3.442,3.71712,3.442,3.769,3.442,3.83785,3.442,3.88946,3.442,3.94106,3.442,3.99278,3.54527,4.06159,3.54527,4.1132,3.54527,4.16481,3.5625,2.0992,1.72105,2.11682,1.72105,2.134,1.72105,2.134,1.721,2.15122,1.721,2.16853,1.721,2.16853,1.721,2.18562,1.721,2.22014,1.721,2.22014,1.721,2.23733,1.721,2.23733,1.721,2.25454,1.721,2.27174,1.721,2.27174,1.721,2.28895,1.721,2.30615,1.721,2.30615,1.721,2.34057,1.721,2.34057,1.721,2.35775,1.721,2.35775,1.721,2.375,1.721,2.39217,1.721,2.39217,1.721,2.40937,1.721,2.40938,1.721,2.44389,1.721,2.44389,1.721,2.46107,1.721,2.46107,1.721,2.49549,1.721,2.49549,1.721,2.5127,1.721,2.5127,1.721,2.5299,1.721,2.54709,1.721,2.54709,1.721,2.5643,1.721,2.5643,1.721,2.5815,1.721,2.59871,1.721,2.59871,1.721,2.61592,1.635,2.61592,1.61789,2.65031,1.61789,2.65031,1.61789.92937.568-108.16451,109.283L189.10443,889.202,311.50254,766.83826l1.34236.63672,2.87406,1.3425,2.89127,1.32523,2.89127,1.308,2.89127,1.29078,2.90816,1.29078,2.92566,1.25633,2.92566,1.25633,2.943,1.222,2.943,1.222,2.9602,1.18781,2.9602,1.18781,2.97738,1.153,2.97738,1.153,2.97738,1.13586,2.99457,1.10148,3.0118,1.10148,2.99457,1.08422,3.029,1.04984,3.029,1.04984,3.04621,1.03258,3.029.9982,3.04621.9982,3.04621.96375,3.08059.94648,3.0634.94648,3.08059.91219,3.08059.895,3.09781.87773,3.09781.84328,3.09781.84328,3.115.809,3.115.79164,3.115.75727,3.13223.75727,3.14941.72281,3.14941.70555,3.14941.68844,3.1666.65406,3.1666.63672,3.1666.61953,3.1666.58523,3.20113.58523,3.18391.5507,3.201.53352,3.201.49906,3.201.48187,3.21824.4475,3.21824.43008,3.21824.39578,3.23586.37891,3.23586.36148,3.25273.327,3.25273.29258,3.25273.29258,3.26992.24094,3.26992.22375,3.26992.20656,3.287.172,3.26992.15492,3.287.12055,3.30434.086h19.82605l3.30434-.086,3.287-.12055,3.287-.15492,3.26992-.172,3.26992-.20656,3.26992-.22375,3.25273-.24094,3.25273-.29258,3.25273-.29258,3.25273-.327,3.23586-.36148,3.23586-.37891,3.21824-.39578,3.21824-.43008,3.21824-.4475,3.21824-.48187,3.201-.49906,3.201-.53352,3.201-.5507,3.18391-.58523,3.1666-.58523,3.1666-.61953,3.1666-.63672,3.14941-.65406,3.14941-.68844,3.14941-.70555,3.14941-.72281,3.13223-.75727,3.13223-.75727,3.115-.79164,3.115-.809,3.115-.84328,3.09781-.84328,3.09781-.87773,3.08059-.895,3.08059-.91219,3.08059-.94648,3.0634-.94648,3.04621-.96375,3.04621-.9982,3.04621-.9982,3.029-1.03258,3.029-1.04984,3.029-1.04984,3.0118-1.08422,2.99461-1.10148,2.99461-1.10148,2.99461-1.13586,2.97734-1.153,2.97734-1.153,2.97734-1.18781,2.94289-1.18781,2.94289-1.222,2.94289-1.222,2.92578-1.25633,2.92578-1.25633,2.90813-1.29078,2.90812-1.29078,2.89125-1.308,2.89125-1.32523,2.87406-1.3425,2.87406-1.3425,2.857-1.35953,2.83969-1.3768,2.83969-1.394,2.82242-1.41125,2.82242-1.41125,2.80578-1.42852,2.80578-1.4457,2.788-1.4457,2.788-1.46281,2.77086-1.46281,2.77086-1.49727,2.75367-1.49727,2.73641-1.51453,2.73641-1.51453,2.71914-1.53172,2.71914-1.54891,2.702-1.54891,2.702-1.56609,2.68469-1.56609,2.6675-1.58328,2.6675-1.60055,2.65031-1.60055,2.65031-1.61789,2.63313-1.61789,2.61594-1.61789,2.61594-1.635,2.59867-1.721,2.59867-1.721,2.58148-1.721,2.5643-1.721,2.54711-1.721,2.54711-1.721,2.54711-1.721,2.52992-1.721,2.51266-1.721,2.51266-1.721,2.49547-1.721,2.49547-1.721,2.461-1.721,2.461-1.721,2.444-1.72047,2.44391-1.721,2.42687-1.721,2.40937-1.721,2.40938-1.721,2.39227-1.721,2.375-1.721,2.35773-1.721,2.35773-1.721,2.34055-1.721,2.34055-1.721,2.30617-1.721,2.30617-1.721,2.289-1.721,2.289-1.721,2.27172-1.721,2.25453-1.721,2.23734-1.721,2.23734-1.721,2.22016-1.721,2.203-1.721,2.18563-1.721,2.18562-1.721,2.16852-1.721,2.15125-1.721,2.134-1.721,2.134-1.721,2.1168-1.72105,2.09922-1.72105,4.16484-3.5625,4.1132-3.54527,4.04477-3.54527,4.01-3.54527,3.94109-3.442,3.88945-3.442,3.83781-3.442,3.78625-3.442,3.70023-3.442,3.66594-3.442,3.597-3.442,3.54531-3.442,3.442-3.442,3.442-3.33875,3.442-3.30434,3.04641-4.25082,3.23586-3.23586,3.16672-3.201,3.115-3.1666,3.04617-3.13223,2.99461-3.09781,2.92578-3.04621,2.87406-2.99457,2.788-2.9602,2.71922-2.92578,2.6675-2.857,2.59867-2.80574,2.54711-2.75363,2.461-2.702,2.39227-2.65031,2.34055-2.59871,2.25453-2.52988,2.1857-2.47809,2.1168-2.40937,2.048-2.34055,1.97922-2.27176,1.91023-2.22012,1.84149-2.134,1.721-2.0652,1.721-1.9968,1.61789-1.92746,3.0118-3.6141,2.71922-3.30434,2.40945-2.94289,2.09922-2.59871,1.721-2.23734,1.48008-1.87586,1.153-1.48008.82609-1.067.75594-.94563ZM298.28555,685.0388l-2.461-1.394-2.44389-1.41125-2.44389-1.42852-2.42687-1.4457-2.42687-1.4457-2.40938-1.46281L281.2643,674.988l-2.39217-1.46281-2.39213-1.48-2.39217-1.49727-2.375-1.49727-2.35775-1.51453-2.35775-1.51453-2.34057-1.53172-2.34057-1.51453-2.34057-1.54891-2.32336-1.54891-2.30615-1.54891L253.04,656.76255l-2.289-1.56641-2.28895-1.56609-2.28895-1.56609-2.27174-1.58332-2.27174-1.60051-2.25453-1.60051-2.23734-1.60051-2.23734-1.60051-2.22014-1.60051-2.22014-1.61793L228.24,639.24224l-2.18572-1.61793-2.18572-1.61793-2.18572-1.635-2.16852-1.635-2.15121-1.635-2.15121-1.72105-2.134-1.72105-2.13385-1.71984-2.11682-1.72105-2.0992-1.72105-2.0992-1.72105-2.0824-1.72105-2.0652-1.72105L198.416,615.613l-2.048-1.72105-2.0308-1.72105-2.0308-1.72105-2.01359-1.72105-1.9968-1.72105-1.9968-1.72105-1.9792-1.72059-1.962-1.72105-1.92758-1.635-3.92387-2.20281-3.83785-3.442-3.78623-3.30434-3.66592-3.21824-3.68292-3.30434-3.63131-3.287-3.5797-3.26992-3.54529-3.25273-3.442-3.23586-3.442-3.21824-3.442-3.201-3.32155-3.18391-3.25273-3.14941-3.21833-3.13223-3.14941-3.09781-3.0978-3.08059-3.029-3.029-2.97738-3.0118-2.92567-2.97738-2.857-2.94289-2.80524-2.89125-2.73644-2.857-2.73633-2.75355-2.61591-2.77086-2.5645-2.736-2.49549-2.68473L94.24179,518.342l-2.375-2.58148-2.375-2.5816-2.23733-2.47809-.24095-.27535h0l2.23733-2.461,2.30615-2.49547,2.35776-2.5643,2.44388-2.6159,2.49549-2.66754,2.68482-2.788,2.61591-2.75363,2.68482-2.80574,2.73644-2.83965,2.80524-2.87406,2.857-2.92578,2.92567-2.94289,2.97738-2.97738,3.029-3.029,3.0978-3.04621,3.14941-3.08059,3.20112-3.09781,3.26994-3.13223,3.32155-3.14941,3.442-3.18391,3.442-3.201,3.442-3.201,3.52809-3.23586,3.5797-3.23586,3.64852-3.25273,3.68291-3.26992,3.68291-3.25262,3.78623-3.287,3.83785-3.287,3.92387-3.33875,1.92758-1.61793,1.962-1.72105,1.97918-1.72105,1.9968-1.72105,2.01359-1.72105,2.01359-1.72105,2.0308-1.72105,2.0308-1.72105,2.0652-1.72105,2.0652-1.72105,2.0652-1.72105,2.0824-1.72105,2.0992-1.72105,2.11682-1.635,2.11682-1.635,2.134-1.72105,2.134-1.61793,2.15121-1.635,2.15121-1.61793,2.16842-1.61793,2.18572-1.61793,2.18572-1.61793,2.18572-1.61793,2.22014-1.60051,2.22014-1.60051,2.23734-1.60051,2.23734-1.60051,2.23734-1.60051,2.27174-1.58332,2.25453-1.56609,2.28895-1.56609,2.27174-1.56609,2.28895-1.54891,2.28895-1.54891,2.30615-1.54891,2.30615-1.54891,2.32336-1.53172,2.34057-1.51449,2.34057-1.51449,2.34057-1.51449,2.35775-1.4973,2.35775-1.4973,2.375-1.4973,2.39217-1.48008,2.39217-1.46289,2.39217-1.46289,2.40937-1.44566,2.40938-1.44566,2.40938-1.42836,2.5127-.4818,2.44389-1.41129,2.44389-1.41129,2.44389-1.394,2.461-1.394,2.46158-1.37422,2.461-1.35957,2.47809-1.35957,2.49549-1.34234,2.49549-1.32516,2.49549-1.308,2.5127-1.30795,2.5127-1.29076,2.5127-1.29074,2.5127-1.25635,2.52988-1.25635,2.54711-1.239,2.54711-1.239,2.54711-1.22193,2.5643-1.20473,2.54711-1.18783,2.5643-1.18783,2.5643-1.15312,2.5643-1.15312,2.58152-1.13582,2.58148-1.11861,2.59871-1.10152,2.59871-1.10152,2.59871-1.08422,2.59871-1.067,2.59871-1.0498,2.6159-1.0326,2.6159-1.0326,2.6159-.9982,2.63313-.981,2.6159-.96379,2.63313-.94648,2.63312-.94648,2.65031-.91219,2.65031-.91219,2.65031-.89488,2.65031-.86016,2.65031-.84326,2.65031-.84326,2.66754-.82605,2.66754-.79166,2.66754-.79166,2.66754-.75725,2.66754-.75725,2.66754-.74,2.68473-.70564,2.68473-.68844,2.68473-.67123,2.68473-.654,2.68473-.63672,2.68473-.61951,2.68473-.60232,2.68473-.58512,2.70191-.56791,2.702-.5335,2.702-.5335,2.702-.4991,2.71914-.48189,2.71977-.46488,2.702-.44748,2.71914-.43008,2.71965-.39578,2.71914-.37889,2.71914-.36137,2.71914-.34428,2.71914-.327,2.73645-.29256,2.71914-.27535,2.73645-.24094,2.73645-.24094,2.73645-.22375,2.73645-.18924,2.73645-.17213,2.73645-.15492,2.73645-.12053,2.73645-.086h21.97723l2.73645.086,2.73645.12053,2.73645.15492,2.73645.17213,2.73645.18924,2.73645.22375,2.73645.24094,2.73645.24094,2.71914.27535,2.73645.29256,2.71914.327,2.71914.34428,2.71914.36137,2.71914.37889,2.71914.39588,2.71914.43008,2.71914.44748,2.702.46469,2.71914.48189,2.702.4991,2.702.5335,2.702.5335,2.702.56791,2.68473.58512,2.68473.60232,2.68473.61951,2.68473.63672,2.68473.654,2.68473.67123,2.68473.68844,2.68473.70564,2.66754.74,2.66754.75725,2.66754.75725,2.66754.79166,2.66754.79166,2.66754.82605,2.66754.84326,2.65031.84326,2.65031.86016,2.65031.89488,2.65031.91219,2.65031.91219,2.63312.94648,2.63312.94648,2.63313.96379,2.6159.981,2.6159.9982,2.6159,1.0326,2.61594,1.0326,2.59867,1.0498,2.59867,1.067,2.59867,1.08422,2.59867,1.10152,2.59867,1.10152,2.58148,1.11861.30977.13762-69.528,69.52926-1.20473-.80895-1.20473-.80895-1.222-.79164-1.222-.77445-1.222-.77445-1.239-.75727-1.25633-.74-1.25668-.74035-1.25633-.72285-1.27355-.72285-1.27355-.70562-1.27355-.68844-1.29074-.67125-1.308-.67125-1.308-.654-1.308-.63672-1.308-.63672L581.029,367.512l-1.32516-.61953-1.34234-.6023-1.34234-.58512-1.34234-.56793-1.35957-.56793-1.35957-.5507-1.35957-.5507-1.37676-.51629-1.37676-.51629-1.37676-.4991-1.394-.48188-1.41129-.48188-1.394-.46469-1.41129-.4475-1.42836-.4475-1.41129-.43008-1.41055-.39566-1.42836-.39586-1.44566-.39586-1.42836-.36137-1.46289-.36137-1.44566-.34426-1.46289-.34426-1.46289-.30977-1.46289-.30977-1.48008-.29254-1.48008-.27535-1.48008-.25816-1.48008-.25816-1.4973-.24094-1.4973-.22375-1.4973-.20652-1.4973-.20652-1.51449-.17215-1.51449-.17215-1.51449-.15492-1.51449-.13762-1.53172-.13762-1.53172-.1032-1.53172-.1032h-15.403l-2.03078.086-2.03078.12051-2.01359.13762-2.01359.17215-2.01359.18922-1.9968.20652-1.97918.24094-1.97918.25816-1.962.29254-1.962.30977-1.962.34426-1.94477.36137-1.92746.37887-1.92746.413-1.92746.43008-1.91027.46469-1.91027.46469-1.89309.4991-1.89309.51629-1.87586.5507L467.03,360.026l-1.85867.6023-1.84145.61953-1.84145.63672-1.82426.654-1.82426.68844-1.72105.68844-1.72105.72285-1.72105.74-1.72105.77445-1.72105.77445-1.72105.80895-1.72105.82605-1.72105.84328-1.72105.87777-1.72105.87777-1.72105.91219-1.72105.92937-1.72105.94648-1.72105.96379-1.72105.981-1.63492.9982-1.85867.82617-1.60051,1.0498-1.58332,1.067-1.58332,1.067-1.56609,1.10152-1.54891,1.11863-1.53168,1.13582-1.51449,1.15312-1.4973,1.17023-1.4973,1.18785-1.48008,1.20473-1.46289,1.222-1.44566,1.239-1.42848,1.25633-1.42848,1.27355-1.41129,1.29074-1.37676,1.308-1.37676,1.32516-1.35957,1.34234-1.34234,1.35957-1.32516,1.37676-1.308,1.394-1.29074,1.41129-1.27355,1.41129-1.25633,1.42836-1.239,1.44566-1.222,1.46289-1.20473,1.48008-1.18785,1.4973-1.17023,1.4973-1.153,1.53172-1.13582,1.53172-1.11863,1.54891-1.10141,1.54891-1.08422,1.58332-1.0498,1.60051-1.03262,1.56609-1.01539,1.61793-.9982,1.635-.981,1.72105-.96379,1.72105-.9466,1.72105-.92937,1.72105-.91219,1.72105L372.718,439.486l-.87766,1.72105-.84328,1.72105-.82605,1.72105-.80895,1.72105-.79164,1.72105-.75727,1.72105-.74,1.72105-.72285,1.72105-.70562,1.72105-.67125,1.82426-.654,1.82426-.63672,1.84145-.61953,1.85867-.6023,1.85867-.56793,1.85867-.5507,1.87586-.51629,1.87586-.4991,1.89309-.48188,1.91027-.4475,1.91027-.43008,1.92746-.41309,1.92746-.39578,1.92746-.36148,1.962-.34418,1.962-.30977,1.962-.29254,1.97918-.25816,1.97918-.24035,1.97836-.20652,1.9968-.18934,2.01359-.17215,2.01359-.13773,2.01359-.12051,2.03078-.086,2.03078v15.403l.086,1.53172.12051,1.53172.12051,1.53172.13773,1.53172.15492,1.51449.17215,1.51449.18934,1.4973.18934,1.4973.20652,1.4973.22375,1.4973.24094,1.48008.25816,1.48008.25816,1.48008.27535,1.48008.29254,1.48008.30977,1.48008.327,1.44566.327,1.46289.34418,1.44566.36148,1.44566.37887,1.44566.39578,1.42836.39578,1.42836.41309,1.42836.41309,1.42836.4475,1.41129.4475,1.41129.46469,1.41129.46469,1.41129.4991,1.394.4991,1.37676.51629,1.37676.53352,1.37676.53352,1.37676.5507,1.35957.56793,1.35957.58512,1.35957.58512,1.34234.6023,1.32516.6023,1.32516.61953,1.32516.63672,1.32516.63672,1.308.67125,1.308.67125,1.29074.68844,1.29074.68844,1.27355.68844,1.27355.72285,1.27355.72285,1.25633.74,1.25633.75727,1.239.75727,1.239.77445,1.222.79164,1.222.79164,1.20473.80895,1.20473.80895,1.20473-84.32973,84.32895Zm258.0648-257.22188L430.5275,553.62259l-.58512-1.18785-.56793-1.20473-.56793-1.222-.5507-1.222-.53352-1.222-.4991-1.239-.4991-1.25633-.48188-1.25633-.46469-1.27355-.4475-1.27355-.41309-1.29074-.39578-1.29074-.39578-1.308-.36148-1.308-.34418-1.32516-.327-1.32516-.30977-1.32516-.29254-1.32516-.25816-1.34234-.25816-1.35957-.24094-1.35957-.20652-1.35957-.18934-1.37676-.17215-1.37676-.15488-1.37676-.13773-1.394-.12051-1.394-.086-1.41129v-12.8732l.1032-1.18785.12051-1.17023.12051-1.17023.13773-1.17023.17215-1.17023.17215-1.17023.18934-1.15312.20637-1.15285.20652-1.15312.22355-1.15262.24094-1.13582.25816-1.13582.25816-1.11863.29254-1.11863.29254-1.11863.30977-1.10152.30977-1.10152.34418-1.10152.34418-1.10152.36148-1.10152.36148-1.08422.39578-1.067.39578-1.067.41309-1.067.41309-1.0498.4475-1.0498.4475-1.0498.46469-1.0498.48188-1.03262.48188-1.01539.4991-1.03262.51629-1.01539.51629-.9982.53352-.9982.5507-.9982.5507-.981.56793-.981.56793-.96379.6023-.96379.6023-.94648.61953-.94648.61953-.92937.63672-.92937.654-.92937.654-.92937.67125-.89488.67125-.89488.68844-.87777.70562-.87777.70562-.87777.72285-.86016.72285-.84328.74-.84328.75727-.82605.75727-.82605.77445-.82605.77445-.80895.79164-.79164.79164-.79164.80895-.77445.80895-.77445.82605-.75727.84328-.74.84328-.74.86016-.72285.86016-.72285.87777-.70562.87777-.68844.89488-.68844.89488-.67125.89488-.67125.91219-.67125.92937-.63672.92937-.63672.94648-.61953.94648-.61953.94648-.6023.96379-.6023.981-.58512.981-.56793.981-.5507.9982-.5507.9982-.5507.9982-.51629,1.01539-.51629,1.01539-.4991,1.03262-.48188,1.03262-.48188,1.03262-.46469,1.0498-.4475,1.0498-.4475,1.067-.413,1.067-.413,1.067-.39586,1.067-.37887,1.08422-.37887,1.08422-.36137,1.10152-.34426,1.10152-.34426,1.10152-.327,1.11863-.30977,1.11863-.29254,1.11863-.27535,1.13582-.27535,1.11863-.24094,1.15312-.24094,1.15312-.22375,1.15312-.20652,1.15312-.18922,1.15313-.18922,1.17023-.17215,1.17023-.15492,1.17023-.13762,1.17023-.13762,1.18785-.12051,1.18785-.086h12.856l1.41129.086,1.394.12051,1.37676.13762,1.37676.15492,1.37676.17215,1.37676.18922,1.35957.20652,1.35957.24094,1.35957.25816,1.34234.27535,1.34234.29254,1.32516.30977,1.32516.34426,1.308.34426,1.308.36137,1.308.37887,1.29074.413,1.27355.413,1.27355.4475,1.25633.4475,1.25633.48188,1.25633.4991,1.239.51629,1.239.51629,1.222.5507,1.222.56793,1.20473.58512Zm380.3434,82.88371-2.23734,2.47809-2.30617,2.52988-2.35773,2.58152-2.44375,2.63313-2.49547,2.68473-2.5643,2.73645-2.6332,2.82246-2.68469,2.82246-2.73641,2.857-2.788,2.89125-2.87406,2.94289-2.92578,2.97738-2.97727,3.0118-3.04617,3.04621-3.09781,3.0634L893.376,555.877l-3.201,3.13223-3.26992,3.14941-3.32156,3.14953-3.442,3.201-3.442,3.21824-3.442,3.23586-3.52813,3.25273-3.57969,3.26992-3.63133,3.287-3.73461,3.26992-3.73461,3.30434-3.78625,3.30434-3.75172,3.35594-3.92383,3.35594-1.9275,1.635-1.962,1.72105-1.97922,1.72105-1.9968,1.72105-2.01359,1.72105-2.01359,1.72105-2.03078,1.72105-2.03078,1.72105-2.048,1.72105-2.06523,1.72105-2.06523,1.72105-2.08242,1.72105-2.09922,1.72105-2.09922,1.72105-2.118,1.7202-2.134,1.72105-2.134,1.72105-2.134,1.72105-2.16852,1.635-2.16852,1.635-2.18563,1.635-2.18562,1.61793-2.203,1.61793-2.22016,1.61793-2.22016,1.61793-2.22016,1.60051-2.23734,1.60051-2.23734,1.60051-2.25453,1.60051-2.27172,1.60051-2.27172,1.58332-2.289,1.56609-2.289,1.56613-2.30617,1.56609-2.30617,1.56609-2.30617,1.54891-2.34055,1.54891-2.34055,1.54891-2.34055,1.51453-2.35773,1.53172-2.35773,1.51453-2.35773,1.51453-2.39227,1.49727-2.39227,1.49727-2.39227,1.48008-2.39227,1.46281-2.40937,1.46281-2.40938,1.46281-2.40937,1.4457-2.42687,1.4457-2.44391,1.42852-2.44391,1.41125-2.44391,1.394-2.461,1.394-2.461,1.394-2.461,1.3768-2.478,1.35953-2.49547,1.35953-2.49547,1.3425-2.49547,1.32523-2.51266,1.32523-2.51266,1.29078-2.51266,1.29078-2.52992,1.29078-2.51266,1.25633-2.54711,1.25633-2.54711,1.23906-2.54711,1.23906-2.5643,1.222-2.54711,1.18781-2.5643,1.18781-2.5643,1.18781-2.5643,1.153-2.5643,1.13586-2.58148,1.13586-2.59867,1.11875-2.59867,1.10148-2.59867,1.08422-2.59867,1.08422-2.59867,1.04984-2.6159,1.03258-2.6159,1.03258-2.6159,1.01539-2.63312.9982-2.6159.981-2.63313.96375-2.63312.94648-2.63313.9293-2.65031.91219-2.65031.895-2.65031.87773-2.65031.86016-2.65031.84328-2.66754.82609-2.66754.809-2.66754.79164-2.66754.77445-2.66754.75727-2.66754.74008-2.68473.70555-2.66754.70555-2.6332-.56773-2.68473.65406-2.68473.63672-2.68473.61953-2.68473.60234-2.68473.58523-2.68473.568-2.702.5507-2.702.51633-2.68473.49906-2.71914.48188-2.7023.46281-2.71914.4475-2.71914.43008-2.71914.39578-2.71914.37891-2.71914.36148-2.71914.3443-2.71914.327-2.71914.29258-2.71914.27539-2.71914.25812-2.73645.24094-2.71914.20656-2.73645.18922-2.73645.172-2.73645.15492L525.7,748.1831l-2.73645.1032H501.03746l-2.73645-.1032-2.73645-.12055-2.73645-.15492-2.73645-.172-2.73645-.18922-2.73645-.20656-2.73645-.24094-2.71914-.25812-2.71914-.27539-2.71914-.29258-2.71914-.327-2.71914-.3443-2.71914-.36148-2.71914-.37891-2.71914-.39578-2.71914-.43008-2.702-.4475-2.71914-.46469-2.702-.48187-2.702-.49906-2.702-.51633-2.68473-.5507-2.702-.568-2.68473-.58523-2.68473-.60234L430.44188,738.7l-2.68473-.63672-2.66813-.65406-2.68473-.68844-2.66754-.70555-2.68473-.70555-2.66754-.74008-2.66754-.75727-2.66754-.77445-2.66754-.79164-2.66754-.809-2.65031-.82609-2.66754-.84328-2.65031-.86016-2.65031-.87773-2.65031-.895-2.65031-.91219-2.65031-.9293-2.63313-.94648-2.63313-.96375-2.6159-.981-2.6159-.9982-2.6159-1.01539-2.6159-1.03258-2.6159-1.03258-2.59871-1.04984-2.27176-.94648L735.3868,342.86806l.22375.13762,2.42687,1.42836,2.40937,1.44566,2.40938,1.44566,2.39227,1.46289,2.39227,1.46289,2.39227,1.48008,2.375,1.4973,2.375,1.4973,2.35773,1.4973,2.34055,1.51449,2.34055,1.51449,2.34055,1.51449,2.32336,1.53172,2.32336,1.54891,2.30617,1.54891,2.30617,1.54891,2.289,1.54891,2.289,1.56609,2.27172,1.56609,2.25453,1.56609,2.25453,1.58332,2.23734,1.60051,2.23734,1.60051,2.22016,1.60051,2.22016,1.60051,2.22016,1.60051,2.18562,1.61793,2.18562,1.61793,2.18563,1.61793,2.16852,1.61793,2.15125,1.61793,2.15125,1.635,2.134,1.61793,2.134,1.72105,2.1168,1.635,2.09922,1.635,2.09922,1.72105,2.08242,1.72105,2.06523,1.72105,2.06523,1.72105,2.048,1.72105,2.03078,1.72105,2.03078,1.72105,2.01359,1.72105,1.9968,1.72105,1.9968,1.72105,1.97922,1.72105,1.962,1.72105,1.9275,1.61793,3.90664,3.33875,3.83781,3.287,3.78625,3.287,3.73461,3.287,3.683,3.26992,3.63133,3.25273,3.57969,3.23586,3.52812,3.23586,3.442,3.201,3.442,3.201,3.44211,3.18391,3.32156,3.14941,3.25273,3.13223,3.2182,3.09781,3.14953,3.08059,3.09781,3.04621,3.04617,3.029,2.97727,2.97738,2.92578,2.94289,2.87406,2.92578,2.788,2.87406,2.73641,2.83965,2.68469,2.80574,2.616,2.75363,2.5643,2.702,2.49547,2.66754,2.42687,2.6159,2.375,2.5643,2.289,2.49547,2.23734,2.461h0Z"/><polygon points="672.809 508.599 672.799 507.206 672.737 505.814 672.686 504.421 672.635 503.039 672.553 501.666 672.471 500.274 672.369 498.912 672.246 497.519 672.123 496.157 671.99 494.785 671.826 493.423 671.672 492.061 671.498 490.72 671.334 489.358 671.119 488.017 670.915 486.675 670.71 485.334 670.484 483.992 670.249 482.651 669.993 481.32 669.727 479.999 669.45 478.688 669.184 477.367 668.887 476.036 668.58 474.746 668.273 473.425 667.945 472.134 667.617 470.824 667.249 469.533 666.911 468.243 606.106 529.048 605.932 529.929 605.757 530.789 605.573 531.659 605.368 532.54 605.153 533.4 604.948 534.26 604.723 535.121 604.508 535.981 604.283 536.841 604.027 537.691 603.761 538.53 603.525 539.391 603.249 540.23 602.972 541.06 602.675 541.889 602.409 542.729 602.092 543.558 601.805 544.367 601.477 545.186 601.17 546.016 600.842 546.825 600.494 547.634 600.146 548.422 599.808 549.221 599.439 550.03 599.081 550.818 598.702 551.607 598.344 552.385 597.944 553.174 597.555 553.952 597.156 554.72 596.746 555.498 596.326 556.256 595.917 557.014 595.487 557.771 595.057 558.509 594.606 559.266 594.166 560.004 593.715 560.751 593.244 561.468 592.783 562.205 592.323 562.932 591.841 563.639 591.36 564.366 590.858 565.083 590.356 565.769 589.844 566.475 589.322 567.182 588.831 567.858 588.288 568.544 587.756 569.23 587.223 569.906 586.691 570.571 586.138 571.247 585.595 571.903 585.021 572.558 584.458 573.203 583.885 573.848 583.322 574.483 582.738 575.118 582.134 575.753 581.55 576.378 580.946 576.992 580.321 577.596 579.717 578.2 579.103 578.815 578.478 579.398 577.843 580.002 577.229 580.576 576.573 581.16 575.939 581.723 575.283 582.296 574.628 582.849 573.972 583.412 573.307 583.965 572.631 584.498 571.955 585.03 571.269 585.563 570.604 586.095 569.897 586.618 569.211 587.13 568.504 587.631 567.798 588.133 567.091 588.625 566.364 589.106 565.658 589.577 564.941 590.058 564.193 590.519 563.476 590.99 562.739 591.43 561.992 591.881 561.234 592.331 560.497 592.762 559.739 593.192 558.981 593.601 558.213 594.031 557.455 594.431 556.677 594.82 555.899 595.219 555.131 595.598 554.332 595.977 553.544 596.356 552.755 596.714 551.967 597.083 551.158 597.421 550.349 597.769 549.55 598.107 548.731 598.434 547.922 598.762 547.113 599.059 546.284 599.366 545.444 599.663 544.614 599.97 543.785 600.247 542.945 600.523 542.095 600.779 541.256 601.056 540.416 601.291 539.566 601.537 538.706 601.773 537.846 601.998 536.986 602.223 536.125 602.449 535.265 602.653 534.395 602.848 533.535 603.032 532.654 603.206 531.753 603.391 470.968 664.165 472.259 664.523 473.549 664.882 474.86 665.21 476.17 665.537 477.46 665.865 478.771 666.162 480.072 666.449 481.403 666.746 482.724 667.002 484.055 667.278 485.396 667.524 486.717 667.759 488.059 667.985 489.4 668.21 490.742 668.415 492.083 668.599 493.445 668.773 494.787 668.947 496.169 669.121 497.531 669.254 498.883 669.398 500.265 669.531 501.627 669.633 503.02 669.736 504.371 669.828 505.774 669.91 507.167 669.961 508.539 670.033 509.932 670.063 511.324 670.104 512.727 670.104 514.13 670.114 516.178 670.104 518.226 670.063 520.264 670.012 522.291 669.91 524.319 669.807 526.336 669.654 528.353 669.5 530.35 669.306 532.347 669.08 534.344 668.845 536.32 668.589 538.276 668.292 540.262 667.985 542.208 667.636 544.143 667.278 546.089 666.899 548.035 666.49 549.949 666.059 551.854 665.588 553.789 665.128 555.684 664.626 557.558 664.093 559.432 663.54 561.306 662.977 563.169 662.394 565.002 661.769 566.845 661.134 568.668 660.479 570.501 659.813 572.303 659.106 574.095 658.379 575.887 657.642 577.659 656.884 579.43 656.096 581.171 655.287 582.902 654.458 584.643 653.618 586.363 652.737 588.073 651.857 589.752 650.945 591.442 650.034 593.091 649.071 594.76 648.119 596.419 647.126 598.036 646.122 599.654 645.108 601.252 644.064 602.839 642.999 604.416 641.914 605.983 640.828 607.529 639.712 609.065 638.575 610.601 637.418 612.096 636.251 613.591 635.063 615.076 633.855 616.53 632.636 617.984 631.397 619.407 630.138 620.82 628.868 622.234 627.588 623.626 626.267 624.988 624.956 626.34 623.615 627.671 622.253 629.012 620.881 630.303 619.498 631.593 618.106 632.863 616.682 634.122 615.238 635.361 613.805 636.58 612.33 637.788 610.866 638.976 609.371 640.143 607.866 641.3 606.35 642.437 604.804 643.533 603.258 644.659 601.691 645.724 600.124 646.789 598.527 647.823 596.919 648.858 595.301 649.851 593.673 650.854 592.034 651.817 590.386 652.749 588.717 653.67 587.027 654.582 585.327 655.483 583.638 656.343 581.917 657.183 580.177 658.012 578.456 658.821 576.685 659.589 574.934 660.367 573.152 661.105 571.37 661.832 569.578 662.518 567.766 663.204 565.943 663.859 564.12 664.494 562.277 665.119 560.434 665.702 558.58 666.276 556.706 666.819 554.822 667.341 552.938 667.832 551.044 668.324 549.149 668.785 547.234 669.215 545.309 669.624 543.364 670.003 541.439 670.372 539.473 670.689 537.527 671.017 535.551 671.293 533.595 671.57 531.608 671.816 529.611 672.041 527.615 672.205 525.618 672.379 523.611 672.522 521.594 672.635 519.566 672.727 517.528 672.799 515.501 672.829 513.453 672.85 511.405 672.85 509.992 672.809 508.599"/></svg>