<svg id="Layer_1" data-name="Layer 1" xmlns="http://www.w3.org/2000/svg" viewBox="0 0 1024 1024"><title>eye</title><path d="M515.31409,208.46566h6.60815l3.304.10322,3.287.12043,3.287.15482,3.26964.17213,3.26964.18934,3.26964.22375,3.25242.25814,3.25242.27535,3.25242.29256,3.25242.327,3.23523.34416,3.23523.37889,3.218.39578,3.218.43008,3.218.44738,3.218.4818,3.20081.499,3.20081.5335,3.20081.5335,3.18363.56791,3.1664.58512,3.1664.61951,3.1664.63672,3.1491.65392,3.1491.68834,3.1491.68834,3.1491.72273,3.132.73994,3.132.75715,3.1148.79166,3.1148.809,3.1148.826,3.09749.84326,3.09749.86015,3.08038.87767,3.08038.91207,3.08038.91207,3.06308.94648,3.04589.96369,3.04589.9809,3.04589.99808,3.02878,1.0325,3.02874,1.0325,3.02874,1.0497,3.01148,1.0841,2.99429,1.0841,2.99429,1.1014,2.99429,1.11851,2.9771,1.13582,2.9771,1.153,2.9771,1.17011,2.94265,1.18783,2.94265,1.20463,2.94265,1.22183,2.92546,1.239,2.92546,1.25625,2.80507,1.46267,2.90812,1.29023,2.89109,1.29023,2.89109,1.30785,2.87382,1.30785,2.87382,1.34226,2.85695,1.34226,2.83945,1.35945,2.83945,1.37666,2.83945,1.42828,2.82226,1.41107,2.80507,1.41107,2.80507,1.42828,2.78781,1.44547,2.78781,1.44547,2.77054,1.46279,2.77054,1.46279,2.75343,1.49718,2.73609,1.49718,2.73609,1.51439,2.7189,1.51439,2.7189,1.5316,2.70171,1.5316,2.70171,1.54881,2.68453,1.566,2.66734,1.566,2.66734,1.5832,2.65007,1.5832,2.65007,1.60041,2.63289,1.61793,2.6157,1.60041,2.6157,1.61793,2.59851,1.61793,2.59851,1.72084,2.58132,1.72084,2.56406,1.72084,2.54687,1.72084,2.54687,1.72084,2.54687,1.72084,2.52929,1.72084,2.5125,1.72084,2.5125,1.72084,2.49531,1.72084,2.49531,1.72084,2.46078,1.72084,2.46078,1.72084,2.44367,1.72084,2.44367,1.72084,2.42687,1.72084,2.40914,1.72084,2.40914,1.72084,2.392,1.72082,2.37476,1.72082,2.35757,1.72082,2.35757,1.72082,2.34039,1.72082,2.34039,1.72082,2.30593,1.72082,2.30593,1.72082,2.28875,1.72082,2.28875,1.72082,2.25429,1.72082,2.25437,1.72082,2.23711,1.72082,2.23711,1.72082,2.21992,1.72082,2.20273,1.72082,2.18554,1.72082,2.18554,1.72082,2.16828,1.72082,2.15109,1.72082,2.13382,1.72082,2.1339,1.72082,2.11664,1.72082,2.09921,1.72082,4.16452,3.44175,4.11288,3.545,4.044,3.44175,4.00968,3.44175,3.94077,3.44175,3.88913,3.44175,3.83757,3.44175,3.78593,3.44175,3.69991,3.44175,3.66593,3.44175,3.59671,3.44175,3.545,3.44175,3.44179,3.33824,3.44179,3.304,3.44179,3.287,3.30406,3.25242,3.23523,3.218,3.1664,3.18363,3.11476,3.1491,3.046,3.09749,2.99429,3.08038,2.92546,3.02878,2.87382,2.97706,2.78781,2.94265,2.71906,2.891,2.66734,2.83945,2.59851,2.78785,2.54687,2.73613,2.46078,2.68453,2.392,2.63289,2.34039,2.5641,2.25429,2.52929,2.18554,2.44367L995.0572,475.68l2.048,2.32316,1.97906,2.27152,1.91015,2.1855,1.84132,2.13382,1.72086,2.048,1.72086,1.979,1.61789,1.91015,3.01148,3.59659,2.71906,3.25242,2.40929,2.94265,2.09921,2.58128,1.72086,2.23714,1.47992,1.85855,1.15289,1.46277.82594,1.06691.67109.86015-.67109.87765-.82594,1.06691-1.15289,1.47988-1.47992,1.87578-1.72086,2.23714-2.09921,2.59851-2.40929,2.94265-2.71906,3.304-3.01148,3.61378-1.61789,1.92738-1.72086,1.99617-1.72086,2.06511-1.84132,2.13382-1.97875,2.85695-1.97906,2.27152-2.048,2.34035L992.872,548.3864l-2.18554,2.47808-2.25437,2.54687-2.34039,2.59851-2.392,2.5641-2.46078,2.70171-2.54687,2.75343-2.6007,2.80566-2.66734,2.85695-2.71906,2.90816-2.78781,2.95988-2.87382,2.99429-2.92546,3.04589-2.99429,3.09749-3.02874,3.132-3.11476,3.1664-3.1664,3.20081-3.23523,3.23523-3.30406,3.287-3.44179,3.304-3.44179,3.33824-3.44179,3.44175-3.545,3.44175-3.59671,3.44175-3.66593,3.44175-3.69991,3.44175-3.78593,3.44175-3.83757,3.44175-3.88913,3.44175-3.94077,3.44175-4.00968,3.545-4.044,3.545-4.11288,3.545-4.16452,3.56218-2.09921,1.72082-2.11664,1.72086-2.13382,1.72086-2.13382,1.72086-2.15109,1.72086-2.16828,1.72086L871.66853,664.58l-2.18554,1.72086-2.20273,1.72086-2.21992,1.72086-2.23711,1.72031-2.23711,1.72086-2.25429,1.72086-2.25437,1.72086-2.28875,1.72086L851.5,680.06717,849.194,681.788l-2.30593,1.72086-2.34039,1.72086-2.34039,1.72086-2.35757,1.72086-2.35757,1.72086-2.37476,1.72086-2.392,1.72086-2.40914,1.72086-2.40914,1.72086-2.42687,1.72086-2.44367,1.72086-2.44367,1.72086-2.46078,1.72086L815.67137,705.88l-2.49531,1.72086-2.49531,1.72086-2.5125,1.72086-2.5125,1.72086-2.52929,1.72086-2.54687,1.72086-2.54687,1.72086-2.54687,1.72086-2.56406,1.72086-2.58132,1.72086-2.59851,1.72086-2.59851,1.72086-2.6157,1.63484-2.6157,1.61789-2.63289,1.61789-2.65007,1.61789-2.65007,1.60039-2.66734,1.60039-2.66734,1.5832-2.68453,1.56593-2.70171,1.56593-2.70171,1.54883-2.7189,1.54883-2.7189,1.53156-2.73609,1.51437-2.61593,2.5125-2.75343,1.49718-2.77054,1.49718-2.77054,1.46265-2.78781,1.46265-2.78781,1.44554-2.80507,1.44554-2.80507,1.42836-2.82226,1.41109-2.82226,1.41109-2.83945,1.3939-2.83945,1.37664-2.85695,1.35945-2.87382,1.34234-2.87382,1.34234-2.89109,1.32508-2.89109,1.30789-2.90812,1.29023-2.90812,1.29023-2.92546,1.25625-2.85695,1.18734-2.94265,1.22187-2.94265,1.22187-2.94265,1.18781-2.9771,1.18781-2.9771,1.15289-2.9771,1.15289-2.99429,1.1357-2.99429,1.1014-2.99429,1.1014-3.01148,1.08414-3.02874,1.04969-3.02878,1.04969-3.02878,1.0325-3.04589.99812-3.04589.99812-3.04589.96367-3.06308.94648-3.08038.94648-3.08038.91211-3.08038.89484-3.09749.87765-3.09749.84312-3.1148.84312-3.1148.809-3.1148.79164-3.132.75711-3.132.75711-3.1491.72273-3.1491.70555-3.1491.68844-3.1491.65391-3.1664.63672-3.1664.61953-3.1664.58508-3.18363.58508-3.20081.5507-3.20081.53351-3.20081.499-3.218.48187-3.218.4475-3.218.43008-3.218.39578-3.23523.37891-3.23523.36141-3.25242.327-3.25242.29258-3.25242.29258-3.25242.24094-3.26964.22375-3.26964.20656-3.26964.172-3.287.15492-3.287.12039-3.304.086H502.14689l-3.304-.086-3.287-.12039-3.26964-.15492-3.287-.172-3.26964-.20656-3.26964-.22375-3.26964-.24094-3.25242-.29258-3.25242-.29258-3.25242-.327-3.23523-.36141-3.23523-.37891-3.218-.39578-3.218-.43008-3.218-.4475-3.20081-.48187-3.19812-.49937-3.20081-.53351-3.18363-.5507-3.20081-.58508-3.1664-.58508-3.1664-.61953-3.1664-.63672-3.23531-.53351-3.14921-.68844-3.14921-.70555-3.14921-.72273-3.132-.75711-3.1148-.75711-3.1148-.79164-3.1148-.809-3.09761-.84312-3.09761-.84312-3.09761-.87765-3.08031-.89484-3.08031-.91211-3.06308-.94648-3.08031-.94648-3.04589-.96367-3.04589-.99812-3.02867-.99812-3.04589-1.0325-3.02816-1.04976-3.02867-1.04969-2.99429-1.08414-3.01148-1.1014-2.99429-1.1014-2.97706-1.1357-2.97706-1.15289-2.97706-1.15289-2.95988-1.18781-2.95988-1.18781-2.94265-1.22187-3.01148-1.34234-2.92546-1.25625-2.92546-1.25625-2.90816-1.29023-2.891-1.29023-2.89134-1.30719-2.891-1.32508-2.87384-1.34234-2.87384-1.34234-2.85695-1.35945-2.83925-1.37711-2.83945-1.3939-2.70181-1.29023-2.82224-1.41109-2.805-1.42836-2.805-1.44554-2.78783-1.44554-2.77064-1.46265-2.77066-1.4632-2.77064-1.49718-2.83945-1.54867-2.73613-1.51437-2.73613-1.51437L268.06032,745.03l-2.71892-1.54883-2.70171-1.54883-2.68451-1.56593-2.68451-1.56593-2.66732-1.5832L251.936,735.6169l-2.65011-1.60039-2.65011-1.61789-2.65011-1.61789-2.6157-1.61789-2.6157-1.63484-2.59849-1.72086-2.59849-1.72086-2.5813-1.72086-2.5641-1.72086-2.5641-1.72086-2.54689-1.72086L220.754,715.482l-2.52927-1.72086-2.51248-1.72086-2.51248-1.72086-2.49527-1.72086-2.49527-1.72086-2.46087-1.72086-2.46087-1.72086-2.44367-1.72086-2.44367-1.72086-2.40916-1.72086-2.40916-1.72086-2.39195-1.72086-2.39195-1.72086L186.42323,691.39l-2.35755-1.72086-2.35755-1.72086-2.34035-1.72086-2.34035-1.72086-2.30593-1.72086-2.30593-1.72086-2.28875-1.72086-2.27154-1.72086-2.27154-1.72086-2.25433-1.72086-2.23712-1.72086-2.23712-1.72086-2.21993-1.72086-2.22044-1.71968-2.18552-1.72086-2.16832-1.72086-2.16832-1.72086-2.15111-1.72086-2.13391-1.72086-2.13391-1.72086-2.1167-1.72082-2.0992-1.72082-4.16449-3.56218-4.11289-3.545-4.06128-3.545-3.99237-3.545-3.94075-3.44175-3.88914-3.44175L109.25934,629.01l-3.76831-3.44175-3.71711-3.44175-3.64829-3.44214L94.529,615.24264l-3.545-3.44175-3.44176-3.44175-3.44176-3.33824-3.44176-3.304-3.304-3.287-3.23522-3.23523-3.16641-3.20081-3.02878-4.16448-3.06308-3.132-2.97707-3.09749L58.95872,578.554l-2.857-2.99429-2.80443-2.9598-2.71892-2.90816-2.66731-2.85695-2.5985-2.805-2.52928-2.75343-2.46087-2.70171-2.392-2.65011-2.34045-2.51226-2.25433-2.52929-2.18552-2.47808-2.11671-2.40918-2.048-2.34035-1.979-2.28875-1.91027-2.2207L21.25491,537.012l-1.72113-2.06457-1.72032-1.99679-1.63481-1.91015-3.01148-3.61378-2.70172-3.304-2.40916-2.94265-2.0992-2.59851-1.72185-2.23675L2.63484,514.383l-1.153-1.47988-.82565-1.0673-.67113-.87765.67113-.86015.82606-1.06691,1.153-1.46277,1.48-1.85855,1.72083-2.23714,2.0992-2.58128,2.40916-2.94265,2.70172-3.25242,3.01148-3.59659,1.61792-1.91015,1.72083-1.979,1.72083-2.048,1.84135-2.13382,2.048-2.16843,1.979-2.27152,2.048-2.32316,2.11671-2.39207,2.18552-2.44367,2.25433-2.52929,2.32315-2.5641,2.392-2.63289,2.46087-2.68453,2.52928-2.73613,2.5985-2.78785,2.66731-2.83945,2.71892-2.891,2.82224-3.04589,2.857-2.97706,2.92546-3.02878,2.97707-3.08038,3.06308-3.09749,3.1148-3.1491,3.16641-3.18363,3.23522-3.218,3.304-3.25242,3.44176-3.287,3.44176-3.304,3.44176-3.33824,3.545-3.44175,3.59658-3.44175,3.6482-3.44175,3.71711-3.44175,3.76831-3.44175,3.83753-3.44175,3.88914-3.44175,3.94075-3.44175,3.99237-3.44175,4.06128-3.44175,4.11289-3.545,4.16449-3.44175,2.0992-1.72082,2.1167-1.72082,2.13391-1.72082,2.13391-1.72082,2.15111-1.72082,2.16832-1.72082,2.16832-1.72082,2.18552-1.72082,2.21993-1.72082,2.21993-1.72082,2.23712-1.72082,2.23712-1.72082,2.25433-1.72082,2.27154-1.72082,2.27154-1.72082,2.28875-1.72082,2.30593-1.72082,2.30593-1.72082,2.34035-1.72082L181.794,335.982l2.35755-1.72082,2.35755-1.72082,2.37476-1.72082,2.39195-1.72082,2.39195-1.72084,2.40916-1.72084,2.40916-1.72084,2.44367-1.72084,2.44367-1.72084,2.46087-1.72084,2.46087-1.72084,2.49529-1.72084,2.49527-1.72084,2.51248-1.72084,2.51248-1.72084,2.52927-1.72084,2.54689-1.72084,2.54689-1.72084,2.5641-1.72084,2.5641-1.72084,2.5813-1.72084,2.59849-1.72084,2.59849-1.61793,2.6157-1.61793,2.6157-1.60041,2.65011-1.61793,2.65011-1.60041,2.65011-1.5832,2.66732-1.5832,2.66732-1.566,2.68451-1.566,2.68451-1.54881,2.70171-1.5316,2.71892-1.5316,2.71892-1.51439,2.73613-1.51439,2.73613-1.49718,2.75343-1.49718,2.77064-1.46279,2.77064-1.46279,2.77064-1.44547,2.78783-1.44547,2.805-1.42828,2.805-1.41107,2.82224-1.89275,2.82224-1.39386,2.83945-1.37666,2.83945-1.35945,2.85695-1.34226,2.87384-1.34226,2.87384-1.30785,2.891-1.30785,2.891-1.29023,2.92546-1.32506,2.90816-1.25625,2.92546-1.25625,2.92546-1.239,2.94265-1.22183,2.94265-1.20463,2.95988-1.18783,2.95988-1.17011,2.97706-1.153,2.97706-1.13582,2.97706-1.11851,2.99429-1.1014,3.01148-1.0841,2.99429-1.0841,3.02867-1.0497,3.02867-1.0325,3.04589-1.0325,3.02867-.99808,3.04589-.9809,3.04589-.96369,3.08031-.94648,3.06308-.91207,3.08031-.91207,3.08031-.87767,3.09761-.86015,3.09761-.84326,3.09761-.826,3.1148-.809,3.1148-.79166,3.1148-.75715,3.132-.73994,3.14921-.72273,3.14921-.68834,3.14921-.68834,3.1666-.65455,3.1664-.63672,3.1664-.61951,3.1664-.58512,3.20081-.56791,3.18363-.53349,3.20081-.5335,3.20081-.499,3.20081-.4818,3.218-.44738,3.218-.43008,3.218-.39578,3.23523-.37889,3.23523-.34416,3.25242-.327,3.25242-.29256,3.25242-.27535,3.26964-.25814,3.26964-.22375,3.26964-.18934,3.287-.17213,3.26964-.15482,3.287-.12043,3.304-.10322h13.21622Zm-6.05745,66.54564H501.031l-2.73613.086-2.73613.12043-2.73613.15482-2.73613.17213-2.73613.18924-2.73613.22375-2.73613.24094-2.73613.24094-2.7189.27535-2.73613.29256-2.7189.327-2.7189.34416-2.7189.36137-2.7189.37889-2.7189.39578-2.7189.43008-2.70171.44748-2.7189.46459-2.7189.4818-2.70171.4991-2.70171.5335-2.70171.5335-2.70171.56791-2.68453.58512-2.68453.60232-2.68453.61951-2.68453.63672-2.68453.65392-2.68453.67113-2.68453.70553-2.68453.70553-2.6673.73994-2.6673.75715-2.6673.75715-2.6673.79154-2.6673.79154-2.6673.82605-2.65011.84316-2.6673.84316-2.65011.86015-2.65011.89488-2.65011.91207-2.65011.91207-2.63289.94648-2.63289.94648-2.6157.96369-2.63289.9809-2.6157.99808L369.18,303.88708l-2.6157,1.0325-2.59851,1.04971-2.59851,1.06691-2.59851,1.0841-2.59851,1.1014-2.59851,1.1014-2.58128,1.11851-2.58128,1.13582-2.5641,1.153-2.5641,1.153-2.5641,1.18783L338.17,317.25915l-2.5641,1.20463-2.54687,1.22183-2.54687,1.239-2.54687,1.239-2.52927,1.25625-2.51248,1.25625-2.51248,1.29023-2.51248,1.29023-2.51248,1.30787-2.49529,1.30785-2.49527,1.325-2.49527,1.34226-2.47808,1.35945-2.46078,1.35945-2.46078,1.37668-2.46078,1.39386-2.44367,1.39386-2.44367,1.39386-2.44367,1.41105-2.42687,1.42828-2.40916,1.42828-2.40916,1.44547-2.40916,1.44547-2.39195,1.46277-2.39195,1.46277-2.39195,1.47988-2.37476,1.49718-2.35755,1.49718-2.35755,1.49718-2.34035,1.51437-2.34035,1.51437-2.34035,1.51437-2.32314,1.5316-2.30593,1.54879-2.30593,1.54879-2.28875,1.54879-2.28875,1.54879-2.27154,1.566-2.28875,1.566-2.25433,1.566-2.25433,1.5832-2.23712,1.60039-2.23712,1.60039-2.23712,1.60039-2.21992,1.60039-2.21992,1.60039-2.18552,1.61793-2.18552,1.61793-2.18552,1.61793-2.16832,1.61793-2.15111,1.61793-2.15111,1.6348-2.1339,1.61793-2.1339,1.72082-2.11671,1.6348-2.11671,1.6348-2.0992,1.72082-2.0822,1.72082-2.065,1.72082-2.065,1.72082-2.065,1.72082-2.03058,1.72082-2.03058,1.72082-2.01339,1.72082-2.01339,1.72082-1.99619,1.72082-1.979,1.72082-1.96177,1.72082-1.92736,1.61793-3.92355,3.33824-3.73431,2.42625-3.78593,3.287-3.73421,3.287-3.6826,3.26964-3.6482,3.25242-3.59659,3.20081-3.44176,3.25242-3.44176,3.20081-3.44176,3.20081-3.44176,3.18363-3.32123,3.1491-3.26962,3.132-3.20081,3.09749-3.1492,3.08038-3.09759,3.04589-3.02868,3.02878-2.99427,2.97706-2.92546,2.94265-2.857,2.90816-2.805,2.87386-2.73613,2.83945-2.75332,2.78785-2.6157,2.75343-2.54689,2.70171-2.49712,2.666-2.392,2.59851-2.35755,2.5641-2.32314,2.59851-2.23712,2.46078h0l.24095.27535,2.23712,2.47808,2.28874,2.52929,2.37475,2.58128,2.42688,2.63289,2.49528,2.68453,2.56409,2.73613,2.6157,2.77054L107.126,532.641l2.73612,2.85695,2.805,2.891,2.805,2.97706,2.92546,2.97706,2.97706,2.95988,3.04588,3.04589,3.09759,3.06308,3.1492,3.09749,3.218,3.132,3.25243,3.1491,3.32123,3.18363,3.44176,3.20081,3.287,3.1664,3.44176,3.23523,3.545,3.25242,3.57939,3.26964,3.631,3.287,3.6826,3.304,3.73421,3.304,3.78593,3.304,3.83753,3.32124,3.92355,3.35574,1.92736,1.6348,1.96177,1.72082,1.979,1.72082,1.99619,1.72082,1.99619,1.72082,2.01339,1.72082,2.03058,1.72082,2.03058,1.72082,2.048,1.72082,2.065,1.72082,2.065,1.72082,2.0822,1.72082,2.0992,1.72082,2.0992,1.72082,2.11671,1.72082,2.1339,1.72082,2.1339,1.72082,2.15111,1.72082,2.15111,1.6348,2.16832,1.6348,2.18552,1.6348,2.18552,1.61793,2.18552,1.61793,2.21992,1.61793,2.21992,1.61793,2.21992,1.60039,2.23712,1.60039,2.23712,1.60039,2.25433,1.60039,2.25433,1.60039,2.27154,1.5832,2.28875,1.566,2.28875,1.566,2.28875,1.566,2.30593,1.566,2.30593,1.54883,2.32314,1.54883,2.34035,1.54883,2.34035,1.53156,2.34056,1.51375,2.35755,1.51437,2.35755,1.51429,2.37476,1.49718,2.39195,1.49718,2.39195,1.47992,2.39195,1.46265,2.40916,1.46265,2.40916,1.46265,2.42687,1.44554,2.42687,1.44554,2.44367,1.42836,2.44367,1.41109,2.46078,1.3939,2.46078,1.3939,2.46078,1.3939,2.47808,1.35945,2.46078,1.35945,2.49527,1.35945,2.49527,1.34234,2.49527,1.32508,2.51248,1.32508,2.51248,1.29023,2.51248,1.29023,2.52927,1.29023,2.52929,1.25625,2.52929,1.25625,2.54687,1.23906,2.54687,1.23906,2.54687,1.22187,2.54687,1.18781,2.5641,1.18781,2.5641,1.18781,2.5641,1.15289,2.58128,1.1357,2.58128,1.1357,2.58128,1.11859,2.59851,1.1014,2.59851,1.08414,2.59851,1.08414,2.59851,1.04969,2.6157,1.0325,2.6157,1.0325,2.6157,1.01539,2.63289.99812,2.6157.98086,2.63289.96367,2.63289.94648,2.65011.92914,2.65011.91211,2.65011.89484,2.65011.87765,2.65011.86015,2.65011.84312,2.6673.82594,2.6673.809,2.6673.79164,2.6673.77445,2.6673.75711,2.6673.73992,2.68453.70555,2.68453.70555,2.6673.68844,2.68453.65391,2.68453.63672,2.68453.61953,2.68453.60219,2.68453.58508,2.70171.56789,2.68453.5507,2.70171.51617,2.70171.499,2.70171.48187,2.7189.46469,2.70171.4475,2.7189.43008,2.7189.39578,2.7189.37891,2.7189.36141,2.7189.34414,2.7189.327,2.7189.29258,2.7189.27523,2.7189.25812,2.73613.24094,2.73613.20656,2.7189.18922,2.73613.172,2.73613.15492,2.73613.12039,2.73613.1032h21.941l2.73613-.1032,2.73613-.12039,2.73613-.15492,2.73613-.172,2.73613-.18922,2.7189-.20656,2.73613-.24094,2.7189-.25812,2.7189-.27523,2.7189-.29258,2.7189-.327,2.7189-.34414,2.7189-.36141,2.7189-.37891,2.7189-.39578,2.7189-.43008,2.7189-.4475,2.70171-.46469,2.7189-.48187,2.68453-.499,2.70171-.51617,2.70171-.5507,2.68453-.56789,2.68453-.58508,2.68453-.60219,2.68453-.61953,2.68453-.63672,2.68453-.65391,2.68453-.68844,2.6673-.70555,2.68453-.70555,2.6673-.73992,2.6673-.75711,2.6673-.77445,2.6673-.79164,2.6673-.809,2.6673-.82594,2.65011-.84312,2.65011-.86015,2.65011-.87765,2.65011-.89484,2.65011-.91211,2.63289-.92914,2.63289-.94648,2.63289-.96367,2.6157-.98086,2.63289-.99812,2.6157-1.01539,2.6157-1.0325,2.61574-1.0325,2.60093-1.04984,2.59851-1.08414,2.59851-1.08414,2.59851-1.1014,2.59851-1.11859,2.58132-1.1357,2.56406-1.1357,2.56406-1.15289,2.56406-1.18781,2.56406-1.18781,2.54687-1.18781,2.54687-1.22187,2.54687-1.23906,2.54687-1.23906,2.54687-1.25625,2.52929-1.25625,2.5125-1.29023,2.5125-1.29023,2.5125-1.29023,2.5125-1.32508,2.49531-1.32508,2.49531-1.34234,2.49531-1.35945,2.478-1.35945,2.46078-1.35945,2.46078-1.3939,2.46148-1.39343,2.44367-1.3939,2.44367-1.41109,2.44367-1.42836,2.42687-1.44554,2.40914-1.44554,2.40914-1.46265,2.40914-1.46265,2.392-1.46265,2.392-1.47992,2.392-1.49718,2.392-1.49718,2.35757-1.51437,2.35757-1.51437,2.35757-1.51437,2.34039-1.53156,2.34039-1.54883,2.32312-1.54883,2.32312-1.54883,2.30593-1.566,2.30593-1.566,2.28875-1.566,2.28875-1.566,2.27156-1.5832,2.25437-1.60039,2.25437-1.60039,2.23711-1.60039,2.23711-1.60039,2.21992-1.60039,2.21992-1.61793,2.21992-1.61793,2.20273-1.61793,2.18554-1.61793,2.18554-1.6348,2.16828-1.6348,2.16828-1.6348,2.13382-1.72082,2.13382-1.72082,2.13382-1.72082,2.11671-1.72082,2.09921-1.72082,2.09921-1.72082,2.08218-1.72082,2.06507-1.72082,2.06507-1.72082,2.048-1.72082,2.03062-1.72082,2.03062-1.72082,2.01336-1.72082,2.01336-1.72082,1.99617-1.72082,1.979-1.72082,1.96179-1.72082,1.92734-1.6348,3.92359-3.35574,3.83757-3.32124,3.78593-3.304,3.73429-3.304,3.68273-3.304,3.631-3.287,3.57937-3.26964,3.52781-3.25242,3.44179-3.23523,3.44179-3.218,3.44179-3.20081,3.32124-3.18363,3.26976-3.1491,3.20078-3.132,3.14921-3.09749,3.09749-3.08038,3.02874-3.02878,2.9771-3.01148,2.92546-2.97706,2.85695-2.92546,2.80507-2.90816,2.73624-2.85695,2.68453-2.82226,2.6157-2.77054,2.56406-2.73613,2.49531-2.68453,2.44359-2.63289,2.35757-2.58128,2.306-2.52929,2.23711-2.47808.24094-.27535h0l-2.23711-2.46078-2.28875-2.49527-2.37414-2.59839-2.42687-2.6157-2.461-2.65011-2.56406-2.70171-2.6157-2.75343-2.68453-2.805-2.73624-2.83945-2.80507-2.87386-2.85695-2.90816-2.92546-2.94265-2.9771-2.97706-3.046-3.02878L896.7084,469.365l-3.14921-3.08038-3.218-3.09749-3.25242-3.132-3.37281-3.1491-3.44179-3.18363-3.44179-3.20081-3.44179-3.20081-3.44179-3.23531-3.57937-3.23523-3.631-3.25242-3.68273-3.26964-3.73429-3.287-3.78593-3.287-3.83757-3.287-3.90632-3.33824-1.92734-1.61793-1.96179-1.72082-1.979-1.72082-1.99617-1.72082-1.99617-1.72082-2.01336-1.72082-2.03062-1.72082-2.03062-1.72082-2.048-1.72082-2.06507-1.72082-2.06507-1.72082-2.08218-1.72082-2.09921-1.72082-2.09921-1.6348-2.237-.75715-2.13382-1.72082-2.13382-1.61793-2.15109-1.6348-2.15109-1.61793-2.16828-1.61793-2.18554-1.61793-2.18554-1.61793-2.18554-1.61793-2.21992-1.60039-2.21992-1.60039-2.21992-1.60039-2.23711-1.60039-2.23711-1.60039-2.25429-1.5832-2.25437-1.566-2.27156-1.566-2.28875-1.566-2.28875-1.54879-2.28875-1.54879-2.30593-1.54879-2.32312-1.54879-2.32312-1.5316-2.34039-1.51437-2.34039-1.51437-2.34039-1.51437-2.35757-1.49718-2.35757-1.49718-2.37476-1.49718-2.392-1.47988-2.392-1.46277-2.392-1.46277-2.40914-1.44547-2.40914-1.44547-2.42687-1.42828-2.42687-1.42828-2.44367-1.41105-2.44367-1.39386-2.44367-1.39386-2.46078-1.39386-2.46078-1.37668-2.46078-1.35945-2.478-1.35945-2.49531-1.34226-2.49531-1.325-2.49531-1.30785-2.5125-1.30785-2.5125-1.29023-2.5125-1.29023-2.52929-1.25625-2.52929-1.25625-2.52929-1.239-2.392-1.18783-2.54687-1.22183-2.56406-1.20463-2.54687-1.18783-2.56406-1.18783-2.56406-1.153-2.56406-1.153-2.58132-1.13582L670.467,310.355l-2.59851-1.1014-2.59851-1.1014-2.59851-1.0841-2.59851-1.06691-2.59851-1.04971-2.63289-1.06691-2.6157-1.0325-2.6157-.99808-2.63289-.9809-2.6157-.96369-2.63289-.94648-2.63289-.94648-2.65011-.91207-2.65011-.91207-2.70171-.91207-2.65011-.86015-2.65011-.84316-2.6673-.84316-2.6673-.82605-2.6673-.79154-2.6673-.79154-2.6673-.75715-2.6673-.75715-2.6673-.73994-2.68453-.70553-2.68453-.70553-2.68453-.67113-2.68453-.65392-2.68468-.63451-2.68453-.61951-2.68453-.60232-2.68453-.58512-2.70171-.56791-2.70171-.5335-2.70171-.53349-2.70171-.4991-2.7189-.4818-2.70171-.46459-2.7189-.44748-2.7189-.43008-2.7189-.39578-2.7189-.37889-2.7189-.36137-2.7189-.34416-2.7189-.327-2.73613-.29256-2.7189-.27535-2.73613-.24094-2.73613-.24094-2.73613-.22375-2.73613-.18924-2.73613-.17213-2.73613-.15482-2.73613-.12043-2.73613-.086H509.29156Z"/><path d="M516.19167,353.41373h4.07847l2.03058.086,2.03058.12043,2.01339.13762,2.01339.15484,2.01339.18922,1.99617.22375,1.99617.24094,1.99617.27535,1.96179.27535,1.96179.30977,1.96179.34418,1.96179.36137,1.92738.39578,1.92738.413,1.92738.413,1.91015.46457,1.91015.4818,1.91015.4991,1.87578.53351,1.87578.53351,1.87578.56793,1.85855.6023,1.84136.6023,1.84136.63672,1.82414.65394,1.82414.68832,1.82414.68832,1.72082.72273,1.72082.74,1.72082.77445,1.72082.77445,1.72082.80894,1.72082.82605,1.72082.86015,1.72082.86015,1.72082.87765,1.72082.91207,1.72082.91207,1.72082.94648,1.72082.96367,1.72082.9809,1.6348.99808,1.61793,1.0325,1.60039,1.0325,1.5832,1.06691,1.5832,1.06691,1.566,1.1014,1.54879,1.11851,1.5316,1.13582,1.5316,1.153,1.49718,1.17012,1.49718,1.18785,1.47988,1.20465,1.46277,1.22183,1.44547,1.239,1.44547,1.25625,1.41105,1.27344,1.41105,1.29023,1.37668,1.30785,1.37668,1.325,1.35945,1.325,1.34226,1.35945,1.325,1.37668,1.30785,1.37668,1.29023,1.41105,1.27344,1.41105,1.25625,1.42828,1.239,1.44547,1.22183,1.46277,1.20465,1.47988,1.17011,1.49718,1.17012,1.51437,1.153,1.51437,1.13582,1.5316,1.11851,1.54879,1.1014,1.54879,1.0841,1.5832,1.06691,1.5832,1.0325,1.61793,1.0325,1.61793.99808,1.6348.9809,1.72082.96367,1.72082.94648,1.72082.9293,1.72082.91207,1.72082.87765,1.72082.86015,1.72082.84312,1.72082.82609,1.72082.79156,1.72082.79156,1.72082.75711,1.72082.73992,1.72082.72273,1.72082.70555,1.72082.68836,1.82414.6539,1.82414.63672,1.84136.61953,1.84136.60234,1.84136.56789,1.87578.5507,1.87578.51617,1.893.51617,1.893.4818,1.91015.4475,1.92738.43008,1.92738.413,1.92738.37891,1.94457.36141,1.94457.327,1.96179.30976,1.96179.29258,1.979.25812,1.979.24094,1.99617.22375,1.99617.18922,1.99617.15484,2.01339.13766,2.01339.12039,2.01339.1032,2.03058v12.287l-.1032,2.03058-.12039,2.01339-.13766,2.01339-.15484,2.01339-.18922,1.99617-.22375,1.99617-.24094,1.99617-.25812,1.979-.36141,2.1164-.30976,1.96179-.327,1.96179-.36141,1.94457-.37891,1.92738-.413,1.92738-.43008,1.92738-.4475,1.91015-.4818,1.91015-.51617,1.893-.51617,1.893-.5507,1.87578-.56789,1.87578-.60234,1.85855-.61953,1.84136-.63672,1.84136-.65391,1.84136-.68836,1.82414-.70555,1.72082-.72273,1.72082-.73992,1.72082-.75711,1.72082-.79156,1.72082-.79156,1.72082-.82609,1.72082-.84312,1.72082-.86015,1.72082-.87765,1.72082-.91207,1.72082-.9293,1.72082-.94648,1.72082-.96367,1.72082-.9809,1.72082-.99808,1.6348-1.0325,1.61793-1.0325,1.61793-1.06691,1.5832-1.0841,1.5832-1.1014,1.54879-1.11851,1.54879-1.13582,1.54879-1.153,1.51437-1.17012,1.51437-1.17011,1.49718-1.20465,1.46277-1.22183,1.46277-1.239,1.44547-1.25625,1.42828-1.27343,1.41105-1.29023,1.41105-1.30785,1.37668-1.325,1.37668-1.34226,1.35945-1.35945,1.34226-1.37668,1.325L622.231,628.1309l-1.41105,1.29023-1.41105,1.27344-1.44547,1.25625-1.44547,1.239-1.46277,1.239-1.47988,1.20465-1.49718,1.18785-1.49718,1.17011-1.5316,1.153-1.5316,1.13582-1.54879,1.11851-1.566,1.0841-1.5832,1.0841-1.5832,1.06691-1.60039,1.04969-1.61793,1.01531-1.6348.99808-1.72082.99808-1.72082.96367-1.72082.94648-1.72082.9293-1.72082.91207-1.72082.87765-1.72082.86015-1.72082.86015-1.72082.82609-1.72082.809-1.72082.77445-1.72082.77445-1.72082.73992-1.72082.70555-1.82414.70555-1.82414.68836-1.82414.65391-1.84136.63672-1.84136.60234-1.85855.60234-1.87578.56789-1.87578.53351-1.87578.53351-1.91015.49906-1.91015.4818-1.91015.4475-1.92738.43008-1.92738.413-1.92738.39578-1.96179.36141-1.96179.327-1.96179.30976-1.96179.29258-1.99617.27539-1.99617.24094-1.99617.22375-2.01339.18922-2.01339.17211-2.01339.13766-2.03058.12039-2.03058.086H507.9316l-2.03058-.086-2.01339-.12039-2.01339-.13766-2.01339-.17211-2.01339-.18922-1.99617-.22375-1.99617-.24094-1.99617-.27539-1.96179-.29258-1.96179-.30976-1.96179-.327-1.94457-.36141-1.94457-.39578-1.92738-.413-1.92738-.43008-1.91015-.4475-1.91015-.4818-1.80675-.43008-1.87578-.53351-1.87578-.53351-1.87578-.56789-1.85855-.60234-1.84136-.60234-1.85855-.60234-1.82414-.65391-1.82414-.68836-1.72082-.70555-1.72082-.70555-1.72082-.73992-1.72082-.77445-1.72082-.77445-1.72082-.809-1.72082-.82605-1.72082-.86015-1.72082-.86015-1.72082-.87765-1.72082-.91207-1.72082-.9293-1.72082-.94648-1.72082-.96367-1.72082-.99808-1.63547-.99711-1.61793-1.01531-1.60039-1.04969-1.5832-1.06691-1.5832-1.0841-1.566-1.0841-1.54879-1.11851-1.5316-1.13582-1.5316-1.153-1.49718-1.17011-1.49718-1.18785-1.48-1.20465-1.46277-1.239-1.44547-1.239L408.93,630.79894,407.519,629.5255l-1.41105-1.29023-1.37668-1.29023-1.37668-1.325-1.35945-1.34226-1.34226-1.35945-1.325-1.37668L398.02,620.16494l-1.30785-1.35945-1.27344-1.41105-1.25625-1.42828-1.239-1.44547-1.22183-1.46277-1.20465-1.46277-1.17011-1.49718-1.239-1.61793-1.153-1.51437-1.13582-1.54879-1.11851-1.54879-1.10133-1.54879-1.0841-1.5832-1.06691-1.5832-1.0325-1.61793-1.0325-1.61793-.99808-1.6348-.9809-1.72082-.96367-1.72082-.94648-1.72082-.9293-1.72082-.91207-1.72082-.87765-1.72082-.86015-1.72082-.84328-1.72082-.826-1.72082-.79164-1.72082-.79164-1.72082-.75715-1.72082-.74-1.72082-.72273-1.72082-.70555-1.72082-.68832-1.82414-.65394-1.84136-.63672-1.84136-.61953-1.84136-.6023-1.85855-.56793-1.87578-.5507-1.87578-.51629-1.893-.51629-1.893-.4818-1.91015-.44738-1.91015-.43008-1.92738-.41324-1.92722-.37887-1.92738-.36137-1.94457-.327-1.96179-.30976-1.96179-.29254-1.979-.25816-1.979-.24094-1.99617-.22375-1.99617-.18934-1.99617-.15453-2.01371-.13762-2.01339-.12043-2.01339-.086-2.03058v-12.287l.086-2.03058.12043-2.01339.13762-2.01339L356.031,497.88l.18934-1.99617.22375-1.99617.24094-1.99617.25816-1.979.29254-1.979.30976-1.96179.327-1.96179.36137-1.94457.37887-1.94457.413-1.92738.43008-1.92738.44738-1.92738.4818-1.91015.51629-1.893.51629-1.893.5507-1.87578.56793-1.87578.6023-1.84136.61953-1.84136.63672-1.84136.65394-1.82414.68832-1.82414.70555-1.72082.72273-1.72082.74-1.72082.75715-1.72082.79164-1.72082.79164-1.72082.826-1.72082.84328-1.72082.86015-1.72082.87765-1.72082.91207-1.72082.9293-1.72082.94648-1.72082.96367-1.72082.9809-1.72082.99808-1.6348,1.0325-1.61793,1.0325-1.61793,1.06691-1.5832,1.0841-1.5832,1.10133-1.54879,1.11851-1.54879,1.13582-1.5316,1.153-1.51437,1.17011-1.51437,1.17012-1.49718,1.20465-1.47988,1.22183-1.46277,1.239-1.44547,1.25625-1.42828,1.34226-1.47968,1.29023-1.41105,1.30785-1.37668,1.325-1.37668,1.34226-1.35945,1.35945-1.325,1.37668-1.325,1.37668-1.30785,1.41105-1.29023,1.41105-1.27344,1.44547-1.25625,1.44547-1.239,1.46277-1.22183,1.48-1.20465,1.49718-1.18785,1.49718-1.17011,1.5316-1.153,1.5316-1.13582,1.54879-1.11851,1.566-1.1014,1.5832-1.06691,1.5832-1.06691,1.60039-1.0325,1.61793-1.0325,1.6348-.99808,1.72082-.9809,1.72082-.96367,1.72082-.94648,1.72082-.91207,1.72082-.91207,1.72082-.87765,1.72082-.86015,1.72082-.86015,1.72082-.82605,1.72082-.80894,1.72082-.77445,1.72082-.77445,1.72082-.74,1.72082-.72273,1.72082-.68832,1.82414-.68832,1.82414-.65394,1.84136-.63672,1.84136-.6023,1.85855-.6023,1.87578-.56793,1.87578-.53351,1.87578-.53351,1.91015-.4991,1.91015-.4818,1.91015-.46457,1.92738-.413,1.92738-.413,1.94457-.39578,1.94457-.36137,1.96179-.34418,1.96179-.30976,1.96179-.27535,1.99617-.27535,1.99617-.24094,1.99617-.22375,2.01339-.18922,2.01339-.15484,2.01441-.13809,2.01339-.12043,2.03058-.086h8.19127ZM512.922,418.4795h-5.98866l-1.18785.1032-1.17011.12043-1.17011.13762-1.17012.13762-1.17011.15484-1.17012.17215-1.153.18922-1.153.20652-1.153.20652-1.153.22375-1.153.24094-1.04961.53351-1.11851.27535-1.11851.27535-1.11851.29254-1.11851.30977-1.1014.327-1.1014.327-1.1014.34418-1.0841.36137-1.0841.36137-1.0841.39578-1.06691.39578-1.06691.413-1.06691.43008-1.04969.43008-1.04969.4475-1.0325.46457-1.0325.4818-1.0325.4818-1.01531.4991-1.01531.51621-.99808.51621-.99808.53351-.99808.5507-.9809.56793-.9809.56793-.96367.58512-.96367.6023-.96367.6023-.94648.61953-.94648.61953-.9293.63672-.91207.65394-.91207.65394-.91207.67113-.89488.68832-.87765.68832-.87765.70555-.87765.70555-.86015.70555-.86015.74-.84316.74-.82605.74-.82605.75715-.82605.77445-.79156.77445-.79156.79156-.79156.79156-.79156.80894-.77445.80894-.75715.82605-.75715.82605-.74.86015-.74.86015-.72273.86015-.70555.87765-.70555.87765-.68832.87765-.68832.89488-.67113.91207-.65394.91207-.65394.91207-.63672.94648-.61953.9293-.6023.94648-.6023.94648-.6023.96367-.58512.9809-.56793.9809-.5507.9809-.5507.99808-.53351.99808-.53351.99808-.51629,1.01531-.499,1.01531-.4818,1.0325-.4818,1.0325-.46469,1.0325-.44738,1.04969-.43008,1.06691-.43008,1.06691-.413,1.06691-.39578,1.0841-.39578,1.06691-.37887,1.0841-.36137,1.0841-.34418,1.0841-.34418,1.1014-.30976,1.11851-.30977,1.11851-.29254,1.11851-.27574,1.11976-.27535,1.13582-.25816,1.13582-.24094,1.13582-.22375,1.153-.22375,1.153-.18934,1.153-.18934,1.17012-.17215,1.153-.15484,1.17012-.13762,1.17011-.13762,1.17012-.1032,1.17011-.1032,1.18785-.086,1.18785v12.04525l.086,1.20465.1032,1.17012.1032,1.18785.13762,1.17011.13762,1.17012.15484,1.17011.17215,1.17012.18934,1.153.18934,1.153.22375,1.153.22375,1.153.24094,1.13582.25816,1.13582.27535,1.13582.27535,1.11851.29254,1.11851.30976,1.11851.30977,1.11851.34418,1.1014.34418,1.0841.36137,1.0841.37887,1.0841.39578,1.0841.39578,1.06691.413,1.06691.43008,1.06691.43008,1.06691.44738,1.0325.46469,1.04969.4818,1.0325.4818,1.0325.499,1.0325.51629.99808.53351,1.01531.53351.99808.5507.99808.5507.9809.56793.9809.58512.9809.6023.96367.6023.94648.6023.94648.61953.94648.63672.9293.65394.9293.65394.91207.67113.91207.68832.89488.68832.87765.70555.87765.70555.86015.72273.86015.74.86015.74.84316.75715.84316.75715.82605.77445.82605.79156.80894.79156.79156.79156.79156.79156.77445.82605.77445.82605.77445.82605.74.84316.74.86015.72273.86015.72273.87765.70555.87765.70555.87765.68832.89488.67113.91207.67113.91207.65394.91207.65394.9293.63672.94648.61953.94648.61953.96367.6023.96367.6023.96367.56793.9809.56793.9809.56793.99808.53351.99808.53351.99808.51621,1.01531.51621,1.01531.4991,1.0325.4818,1.0325.4818,1.0325.46457,1.04969.4475,1.04969.4475,1.06691.413,1.06691.413,1.06691.39578,1.0841.37887,1.0841.37887,1.0841.36137,1.1014.34418,1.1014.327,1.1014.327,1.11851.30977,1.11851.30976,1.11851.27535,1.11851.27535,1.13582.24094,1.153.24094,1.153.22375,1.153.20652,1.153.20652,1.153.18922,1.17011.17215,1.17011.15484,1.17011.13762,1.17011.13762,1.17012.1032,1.18785.1032,1.18785.086H520.236l1.18785-.086,1.18785-.1032,1.16949-.10332,1.17011-.13762,1.17012-.13762,1.17011-.15484,1.17012-.17215,1.153-.18922,1.153-.20652,1.153-.20652,1.153-.22375,1.153-.24094,1.13582-.24094,1.11851-.27535,1.11851-.27535,1.11851-.30976,1.11851-.30977,1.1014-.327,1.1014-.327,1.1014-.34418,1.0841-.36137,1.0841-.37887,1.0841-.37887,1.06691-.39578,1.06691-.413,1.06691-.413,1.04969-.4475,1.04969-.4475,1.0325-.46457,1.0325-.4818,1.0325-.4818,1.01531-.4991,1.01531-.51621.99808-.51621.99808-.53351.9809-.53351.9809-.56793.9809-.56793.96367-.56793.96367-.6023.96367-.6023.94648-.61953.94648-.61953.9293-.63672.91207-.65394.91207-.65394.91207-.67113.89488-.67113.87765-.68832.87765-.70555.87765-.70555.86015-.72273.86015-.72273.84316-.74.82605-.74.82605-.77445.82605-.77445.79156-.77445.79156-.79156.79156-.79156.77445-.80894.77445-.82605.75715-.82605.75715-.84316.74-.84316.74-.86015.72273-.86015.70555-.86015.68832-.87765.68832-.87765.68832-.89488.67113-.91207.65394-.91207.65394-.9293.63672-.9293.61953-.94648.61953-.94648.6023-.94648.6023-.96367.58512-.9809.56793-.9809.5507-.9809.5507-.99808.53351-.99808.53351-1.01531.51621-.99808.4991-1.0325.4818-1.0325.4818-1.0325.46457-1.04969.4475-1.0325.4475-1.06691.413-1.06691.413-1.06691.39578-1.06691.39578-1.0841.37887-1.0841.36137-1.0841.36137-1.0841.327-1.1014.30977-1.11851.30976-1.11851.29254-1.11851.27535-1.11851.27535-1.13582.25816-1.13582.24094-1.13582.22375-1.153.22375-1.153.18922-1.153.18922-1.153.17215-1.17011.15484-1.17012.13762-1.17012.13762-1.17011.1032-1.18785.1032-1.17011.086-1.20465v-12.046l-.086-1.18785-.1032-1.18785-.1032-1.17012-.13762-1.17011-.13762-1.17011-.15484-1.17011-.17215-1.153-.18922-1.17012-.18922-1.153-.22375-1.153-.22375-1.153-.24094-1.13582-.25816-1.13582L605.1429,489.86l-.27535-1.11851L604.575,487.623l-.30976-1.11851-.30977-1.11851-.327-1.1014-.36137-1.0841-.36137-1.0841-.37887-1.0841-.39578-1.06691-.39578-1.0841-.413-1.06691-.413-1.06691-.4475-1.06691-.4475-1.04969-.46457-1.0325-.4818-1.0325-.4818-1.0325-.4991-1.01531-.51621-1.01531-.53351-.99808-.53351-.99808-.5507-.99808-.5507-.9809-.56793-.9809-.58512-.9809-.6023-.96367-.6023-.94648-.61953-.94648-.61953-.9293-.63691-1.01539-.65394-.91207-.65394-.91207-.67113-.91207-.68832-.89488-.68832-.87765-.68832-.87765-.70555-.87765-.72273-.86015-.74-.86015-.74-.86015-.75715-.82605-.75715-.82605-.77445-.80894-.77445-.80894-.79156-.79156-.79156-.79156-.79156-.77445-.82605-.77445-.82605-.75715-.82605-.74-.84316-.74-.86015-.74-.86015-.70555-.87765-.70555-.87765-.70555-.87765-.68832-.89488-.68832-.91152-.67121-.91207-.65394-.91207-.65394-.9293-.63672-.94648-.61953-.94648-.61953-.96367-.6023-.964-.60226-.96367-.58512-.9809-.56793-.9809-.56793-.9809-.5507-.99808-.53351-.99808-.51621-1.01531-.51621-1.01531-.4991-1.0325-.4818-1.0325-.4818-1.0325-.46457-1.04969-.4475-1.04969-.43008-1.06691-.43008-1.06691-.413-1.06691-.39578-1.08437-.39633-1.0841-.36137-1.0841-.36137L542.039,422.644l-1.1014-.327-1.10129-.3268-1.11851-.30977-1.11851-.29254-1.11851-.27535-1.11851-.27535-1.13582-.24094-1.153-.24094-1.153-.22375-1.153-.20652-1.153-.20652-1.153-.18922-1.17012-.17215-1.17011-.15484-1.17012-.13762-1.17012-.13762-1.17011-.12043-1.18785-.1032h-8.415Z"/></svg>