<svg id="Layer_1" data-name="Layer 1" xmlns="http://www.w3.org/2000/svg" viewBox="0 0 1024 1024"><title>friends</title><path d="M1023.38563,768.10242c-3.37922-112.64-69.12-177.86883-150.016-207.46242-51.2-18.32961-103.52641-38.80961-158.31039-39.73121a233.1913,233.1913,0,0,0-51.2,4.30078,274.02632,274.02632,0,0,0-27.9552,6.45121,209.55395,209.55395,0,0,0-21.504,6.656c-10.24,3.89121-20.48,7.4752-30.72,10.9568-3.584-1.74078-7.27039-3.4816-10.9568-5.01762-67.072-28.56961-139.57121-57.13918-213.70879-58.57281a265.49767,265.49767,0,0,0-58.47039,4.81281,317.27065,317.27065,0,0,0-31.84641,7.37281,236.86086,236.86086,0,0,0-23.9616,8.29441C184.32,529.2032,121.1392,542.82238,71.68,581.73441,17.2032,625.152,3.6864,696.01281.9216,763.5968c0,10.24-.6144,20.48-.9216,30.72H1024Zm-985.90719-10.24C40.96,674.20156,77.824,611.02078,141.6192,583.27039,208.2816,554.18879,279.1424,523.776,352.256,522.4448a231.48321,231.48321,0,0,1,48.128,3.584c65.536,10.24,150.93812,32.46082,213.095,92.16a187.40629,187.40629,0,0,1,57.65055,106.39363,326.4003,326.4003,0,0,1,2.56,33.17758Zm672.256,0c-5.22242-77.92641-36.45438-143.36-88.064-184.32a304.5437,304.5437,0,0,1,87.552-16.17922,248.6313,248.6313,0,0,1,71.68,10.24C840.08969,585.62559,891.08492,599.04,934.5025,640a179.18889,179.18889,0,0,1,53.0432,118.16961Z"/><path d="M355.53281,229.6832A107.21279,107.21279,0,1,0,462.74559,336.896h0A107.2128,107.2128,0,0,0,355.53281,229.6832Zm0,176.64A69.42721,69.42721,0,1,1,424.96,336.896v0A69.42717,69.42717,0,0,1,355.53281,406.3232Z"/><path d="M710.24641,478.82238A107.2128,107.2128,0,1,0,603.03359,371.60961h0A107.21279,107.21279,0,0,0,710.24641,478.82238Zm0-176.64a69.42721,69.42721,0,1,1-69.42719,69.42719h0A69.4272,69.4272,0,0,1,710.24641,302.18238Z"/></svg>