<svg id="Layer_1" data-name="Layer 1" xmlns="http://www.w3.org/2000/svg" viewBox="0 0 1024 1024"><title>friends-bar</title><path d="M379.05266,185.46457A129.86369,129.86369,0,1,0,508.91633,315.32827v0h0A129.93924,129.93924,0,0,0,379.05266,185.46457Zm0,212.95176a83.39159,83.39159,0,1,1,83.39148-83.39189h0a83.39159,83.39159,0,0,1-83.39129,83.39189Z"/><path d="M731.1325,250.49256A129.86368,129.86368,0,1,0,860.99617,380.35625h0A129.93928,129.93928,0,0,0,731.1325,250.49256Zm0,212.95174a83.39159,83.39159,0,1,1,83.39156-83.39164v0h0A83.39161,83.39161,0,0,1,731.1325,463.4443Z"/><path d="M1023.91625,830.82641c-.62563-36.9075-1.39117-82.85383-18.46875-122.20812-18.99937-43.91937-62.71438-77.345-133.655-102.19938l-10.64375-3.67871c-41.455-14.38813-84.32937-29.26121-128.85562-29.97063h-.04687a270.50825,270.50825,0,0,0-85.0168,13.41938,459.87276,459.87276,0,0,0-83.88125-38.19879c-59.2077-20.39316-118.41629-42.68125-180.505-43.66684a349.32569,349.32569,0,0,0-118.34,20.01437c-68.76059,25.01754-150.02941,41.46812-204.30939,96.81S2.50184,759.04711,0,835.69149H1024Zm-974.41189-45.928c2.35-44.04625,10.08251-90.82125,39.42124-124.93559,21.07566-24.48691,52.23424-39.27039,82.55753-51.4,64.28754-24.79,132.51688-55.41754,204.23375-56.63l-.15125.07566a266.84236,266.84236,0,0,1,91.50313,13.64625C536.89,588.246,618.68938,602.80157,668.27,660.87219c29.26258,34.2668,38.89063,81.64812,40.78594,127.13445Zm707.09876,3.70937a318.12027,318.12027,0,0,0-22.15062-110.375,175.1712,175.1712,0,0,0-39.93813-56.44289,224.47031,224.47031,0,0,1,25.49125-2.82316l6.76937-.17684a197.6541,197.6541,0,0,1,68.36312,10.19566c9.59813,3.10875,19.49563,6.0125,29.4857,8.95375,45.2275,13.29562,91.99445,27.03871,122.19875,62.40684,17.73063,20.77375,27.49688,50.01625,29.793,89.29625Z"/></svg>