<svg id="Layer_1" data-name="Layer 1" xmlns="http://www.w3.org/2000/svg" viewBox="0 0 1024 1024"><title>like</title><path d="M749.705,146.17495A172.07378,172.07378,0,0,1,921.58418,318.0542a238.01238,238.01238,0,0,1-45.76159,143.62859q-2.3671,3.502-4.43764,7.1882C822.46223,545.26475,647.05588,718.365,512,843.84559,380.96062,722.09569,211.92247,555.49615,157.22844,475.80716l-.38911-1.27249-8.5899-12.74443a238.1417,238.1417,0,0,1-45.83359-143.736,171.72185,171.72185,0,0,1,275.2462-137.165C395.9136,194.632,512,315.76317,512,315.76317s116.03684-121.076,134.25075-134.80829A172.02153,172.02153,0,0,1,749.705,146.17494m0-102.396A274.09842,274.09842,0,0,0,512,181.28983C436.48062,49.99527,268.82482,4.78056,137.53025,80.29994A274.25038,274.25038,0,0,0,.0198,318.0542,338.96888,338.96888,0,0,0,63.33957,519.01944c.08622.12882.13905.44819.221.58049C145.96129,653.2071,512,982.66319,512,982.66319S878.03789,653.2071,960.43955,519.6c.08109-.1323.1339-.45178.221-.58049a338.97464,338.97464,0,0,0,63.31966-200.96532c.00023-151.47782-122.79666-274.27505-274.27448-274.27529Z"/></svg>