<svg id="Layer_1" data-name="Layer 1" xmlns="http://www.w3.org/2000/svg" viewBox="0 0 1024 1024"><title>like-filled</title><path d="M749.70512,43.77874A274.09813,274.09813,0,0,0,512,181.28905C436.48042,49.99456,268.82446,4.78007,137.53,80.29966A274.25048,274.25048,0,0,0,.01979,318.0539,338.97083,338.97083,0,0,0,63.33956,519.01926c.08632.12871.13915.44787.221.58037C145.96129,653.20642,512,982.66283,512,982.66283S878.03789,653.20642,960.43947,519.60006c.08109-.13242.1339-.45166.221-.58037a338.97559,338.97559,0,0,0,63.31974-200.96579c.00016-151.47782-122.79674-274.275-274.27456-274.27517Z"/></svg>