<svg id="Layer_1" data-name="Layer 1" xmlns="http://www.w3.org/2000/svg" viewBox="0 0 1024 1024"><title>lock</title><path d="M763.34582,287.64161V238.592C764.14074,107.81054,658.91246,1.07052,528.133,0H495.77457A231.83365,231.83365,0,0,0,329.6818,70.04161,243.712,243.712,0,0,0,260.66418,238.592v49.04961a196.608,196.608,0,0,0-184.32,196.91519v342.016c-.4563,108.10789,86.457,196.302,194.56,197.42719H753.10582c108.103-1.12516,195.01633-89.3193,194.56-197.42719V484.45442A196.608,196.608,0,0,0,763.34582,287.64161ZM341.66258,238.6944A162.4063,162.4063,0,0,1,386.9234,128.2048,151.85921,151.85921,0,0,1,495.77457,81.92h32.46078a155.3408,155.3408,0,0,1,153.6,156.2624V286.72H341.66258ZM866.565,826.57281A114.48323,114.48323,0,0,1,753.11488,942.07992l-.00906.00008H270.8018A114.48318,114.48318,0,0,1,157.34251,826.582l.00008-.00914V484.45442A114.48321,114.48321,0,0,1,270.8018,369.3568h482.304A114.48319,114.48319,0,0,1,866.565,484.45442Z"/><path d="M511.95379,498.9952A110.6944,110.6944,0,0,0,467.9218,711.168v65.43359a44.0832,44.0832,0,0,0,88.16641,0V711.168A110.6944,110.6944,0,0,0,511.95379,498.9952Z"/></svg>