<svg id="Layer_1" data-name="Layer 1" xmlns="http://www.w3.org/2000/svg" viewBox="0 0 1024 1024"><title>notifications-bar</title><path d="M266.24882,771.56533Q178.49649,720.3679,91.15373,668.5562C11.593,618.99711-2.84469,483.42639,95.24952,436.01763A140.38325,140.38325,0,0,1,156.072,425.77816c122.87375-27.749,194.5501-172.74,271.3462-287.627a418.48713,418.48713,0,0,1,69.2189-73.31467A318.243,318.243,0,0,1,692.72308.0206C896.48873,4.526,1057.35094,240.44356,975.8447,436.12c0,0-127.5839,189.94233-136.28744,295.20416a236.22505,236.22505,0,0,0,20.479,103.62356l10.95624,25.18911c8.0892,26.1107,4.71015,5.22216,5.93892,37.37411,1.22877,89.08344-108.64088,158.09758-196.39321,111.50792q-92.87205-52.119-185.33456-104.95466A131.47494,131.47494,0,0,1,380.41905,972.2591,133.11324,133.11324,0,0,1,248.637,838.22436a134.85382,134.85382,0,0,1,17.40712-66.55661ZM686.06749,70.161A250.56,250.56,0,0,0,479.23,187.60785l-20.479,31.64C383.18368,333.418,313.35043,458.03249,182.28511,491.72039c-30.71844,7.98678-72.29072-4.30056-85.90923,43.313a67.99014,67.99014,0,0,0,32.35675,73.62184c70.44762,41.77705,140.79285,83.86132,211.24044,125.63841C463.154,807.91551,588.178,880.6158,715.762,948.29876c40.13874,20.479,99.52775-12.28734,89.59544-59.90094l-8.70354-21.81006c-28.97774-74.23622-34.91666-151.03232,7.47485-244.82594,24.16518-53.45009,51.1974-105.569,78.6392-157.2784,0,0,43.51779-67.37575,47.40876-136.79945C937.65148,195.49225,821.331,69.85385,686.06749,70.161Zm-362.88716,734.785a67.37554,67.37554,0,0,0-8.70356,33.27831,66.45425,66.45425,0,0,0,65.93827,66.9662h.004a65.73749,65.73749,0,0,0,57.44348-34.09748q-57.34109-32.97114-114.57976-66.24944Z"/></svg>