<svg id="Layer_1" data-name="Layer 1" xmlns="http://www.w3.org/2000/svg" viewBox="0 0 1024 1024"><title>photos-empty-state</title><path d="M163.83227,747.56851H79.04318A80.59058,80.59058,0,0,1,.91024,671.074c-2.048-159.85,0-319.80232,0-479.95948a80.59059,80.59059,0,0,1,76.2897-77.92814q352.87828-3.99371,705.44932,0a80.89779,80.89779,0,0,1,76.28967,76.28971q.512,43.41855.71681,86.93953l87.14436.92162a80.89779,80.89779,0,0,1,76.28967,76.28969c2.048,159.85,0,319.80228,0,479.65225a80.59061,80.59061,0,0,1-76.28967,78.23534c-234.50124,2.96968-469.00244,0-703.50364,0a80.59058,80.59058,0,0,1-78.23534-76.28967q-.6144-43.82816-.71681-87.75875ZM860.16778,313.99725c0,118.47944-.81924,236.95887-.81924,355.33592a80.59058,80.59058,0,0,1-76.39209,78.23534c-193.7451,2.45763-387.49023.81924-581.23533,0q0,43.31616.92162,86.63232a42.49691,42.49691,0,0,0,39.93689,39.93691q351.75183,4.50573,703.50366,0a42.4969,42.4969,0,0,0,39.93691-39.93691q3.072-239.82616,0-479.65228a42.49691,42.49691,0,0,0-39.93691-39.93689ZM79.35039,150.1536a42.497,42.497,0,0,0-40.96091,39.93689q-3.07207,239.82613,0,479.6523A42.39457,42.39457,0,0,0,78.32637,709.6797q351.75185,4.50573,703.50365,0a42.4969,42.4969,0,0,0,39.93691-39.93691q3.07214-239.82616,0-479.65228A42.49691,42.49691,0,0,0,781.83,150.15362C547.636,147.49115,313.442,150.15361,79.35039,150.1536Z"/><path id="path-2" d="M437.14394,497.19493l66.9711-99.94461,157.0851,241.97656H107.40861L320.20056,310.92515,437.24637,497.29731Z"/><circle id="ellipse-4" cx="638.87645" cy="303.44982" r="52.22515"/></svg>