<svg id="Layer_1" data-name="Layer 1" xmlns="http://www.w3.org/2000/svg" viewBox="0 0 1024 1024"><title>user-bar</title><path d="M517.12,503.562c83.86559,1.33121,163.84,31.4368,243.81438,58.98238C857.088,596.234,953.0368,648.25317,992.05117,738.46758c28.56961,65.8432,30.72,140.0832,31.94883,212.68484H0c3.3792-103.52641,7.9872-215.04,81.3056-289.792s183.0912-96.97281,275.968-130.7648A471.8586,471.8586,0,0,1,517.12,503.562Zm-9.62559,64.30719c-96.87039,1.6384-189.03039,43.008-275.86561,76.49281-40.96,16.384-83.0464,36.352-111.5136,69.42723-39.6288,46.08-50.0736,109.26078-53.248,168.75523l890.88,4.19844c-2.56-61.44-15.56477-125.44-55.09117-171.72484-66.96961-78.4384-177.45922-98.09922-271.76961-128.61441a360.44806,360.44806,0,0,0-123.5968-18.432Z"/><path d="M512,72.86758A175.41119,175.41119,0,1,0,687.41117,248.27877h0A175.51358,175.51358,0,0,0,512,72.86758Zm0,287.6416a112.64,112.64,0,1,1,112.64-112.64h0A112.64,112.64,0,0,1,512,360.50918Z"/></svg>