<svg id="Layer_1" data-name="Layer 1" xmlns="http://www.w3.org/2000/svg" viewBox="0 0 1024 1024"><title>users-empty-state</title><path d="M511.89755,81.187A167.08339,167.08339,0,1,0,678.98061,248.2707v0A167.08357,167.08357,0,0,0,511.89755,81.187Zm.10238,291.4743-.10238.00063a125.0011,125.0011,0,1,1,.10238-.00063Z"/><path d="M514.45755,509.44021c86.30589.7168,168.312,32.14714,248.47508,59.7896C847.39535,598.818,933.087,636.28891,978.74814,715.22323c33.78523,58.45874,42.38507,127.15537,44.43265,194.52106L1024,942.813H0c3.27619-107.4985,11.46654-222.98254,100.0243-294.54589,74.32755-60.09683,174.04515-83.43928,264.75342-114.56264A465.21359,465.21359,0,0,1,514.45755,509.236ZM509.54337,550.392c-90.50346.81922-176.60466,38.3923-262.501,69.20858-58.56163,21.2955-118.86315,46.07132-155.41267,96.237-39.0063,53.2378-46.58267,122.958-49.347,185.92153H981.81947a133.09247,133.09247,0,0,0-.61437-15.56164,252.67693,252.67693,0,0,0-2.35523-29.89476c-7.88312-71.66569-37.47093-144.76459-96.339-186.84255-68.79905-49.14175-155.00287-68.90136-236.70145-97.26053a425.18319,425.18319,0,0,0-136.36943-22.21652Z"/></svg>